<svg xmlns="http://www.w3.org/2000/svg" viewBox="22.97 51.92 452.57 410.42"><path d="m176.61 243.31 1.95 3.94 4.35.63-3.15 3.08.74 4.33-3.89-2.05-3.9 2.05.75-4.33-3.15-3.08 4.35-.63zm208.37-51.59 1.94 3.94 4.36.63-3.15 3.08.74 4.33-3.89-2.05-3.9 2.05.75-4.33-3.15-3.08 4.35-.63zm-40.74 134.14 1.95 3.95 4.36.63-3.16 3.07.75 4.34-3.9-2.05-3.89 2.05.74-4.34-3.15-3.07 4.36-.63zm-99.05-134.29 1.21 2.44 2.69.39-1.95 1.9.46 2.68-2.41-1.26-2.41 1.26.46-2.68-1.94-1.9 2.69-.39zm-190.6-57.12 1.21 2.44 2.69.39-1.95 1.9.46 2.67-2.41-1.26-2.4 1.26.46-2.67-1.95-1.9 2.69-.39zm375.97 150.88 1.2 2.44 2.69.39-1.94 1.9.46 2.68-2.41-1.27-2.41 1.27.46-2.68-1.94-1.9 2.69-.39zM219.72 56.11l1.21 2.44 2.69.39-1.95 1.9.46 2.68-2.41-1.26-2.4 1.26.46-2.68-1.95-1.9 2.69-.39zm-60.39 166.33.74 1.51 1.67.24-1.21 1.18.29 1.65-1.49-.78-1.49.78.29-1.65-1.21-1.18 1.67-.24zm189.11-55.17.74 1.51 1.66.24-1.2 1.17.28 1.66-1.48-.78-1.49.78.28-1.66-1.2-1.17 1.66-.24z" style="fill:#c7c7c7"/><path d="M407.92 83.05c-4.24-1.83-9.62-4-13.83-.84-3.95 2.93-3.79 8.42-3 12.75 1 5.58 2.19 11.13 3.38 16.67s2.45 11.18 3.72 16.76c.72 3.15 1.44 6.29 2.17 9.44.37 1.57.74 3.14 1.1 4.72s.68 3.1 1.17 4.6c.15.48.92.27.85-.22-.39-2.71-1.15-5.39-1.75-8.06l-1.83-8q-1.8-8-3.56-16t-3.46-16c-1-4.54-2.69-10 0-14.25a7.84 7.84 0 0 1 6.83-3.39 22.6 22.6 0 0 1 8.17 2 .07.07 0 0 0 .04-.18" style="fill:#a6a6a6"/><path d="M402.52 81.59s-7.16.15-8.5 5.94 6.86 16 38.05 11.61a86.6 86.6 0 0 0-16.86-23.25c-11.29-11.03-20.28-1.75-12.69 5.7" style="fill:#16a34a"/><path d="M429.69 97.86a25 25 0 0 0-2.34-1.77l-2.3-1.64-1.75-1.21c0-.15-.07-.29-.11-.43L423 92c-.14-.56-.27-1.13-.39-1.69s-.25-1.13-.35-1.7a9 9 0 0 1-.27-1.84c0-.09-.17-.08-.14 0a6 6 0 0 1 .11 1l.09.8c.07.6.14 1.19.23 1.79a30 30 0 0 0 .46 2.41c-.79-.53-1.59-1-2.4-1.55-2.29-1.42-4.64-2.73-7-4v-.07a55 55 0 0 1-2.7-9.23c0-.09-.15-.09-.14 0a32.7 32.7 0 0 0 2.23 9q-1.29-.66-2.58-1.29-3-1.45-6-2.79c-.08 0-.14.09-.06.13 3.41 1.67 6.75 3.49 10 5.39a53 53 0 0 0-5.09 2.31c-1.89.89-3.72 1.88-5.55 2.89-.08 0 0 .16.07.12a58 58 0 0 1 5.6-2.75c1.83-.8 3.73-1.43 5.59-2.15 1.78 1 3.56 2.08 5.32 3.15l-.27.09-1.32.5c-.86.35-1.71.75-2.55 1.16a41.5 41.5 0 0 0-5 2.82c-.07 0 0 .16.07.12 1.69-.88 3.39-1.72 5.14-2.46.83-.36 1.67-.68 2.52-1l1.32-.5a2 2 0 0 0 .7-.34l3.46 2.11q1.36.85 2.73 1.74c.92.6 1.81 1.3 2.78 1.82a.08.08 0 0 0 .08-.13" style="fill:#263238"/><path d="M407.76 87a21 21 0 0 0-3.12 1c-1 .39-2 .82-3 1.25a.07.07 0 1 0 .06.12c1-.47 2-.89 3.08-1.27s2.05-.66 3-1.08zm9.88-1.11c-.25-1-.51-2-.67-3.1a.07.07 0 1 0-.14 0c.23 1 .41 2 .63 3.06.12.51.24 1 .37 1.53a7 7 0 0 0 .4 1.41c0 .08.19 0 .18 0a9 9 0 0 0-.38-1.42Zm-6.05-10.11c.12 1 .24 2.1.43 3.14.1.53.22 1 .34 1.57a6.7 6.7 0 0 0 .46 1.48h.08a9.6 9.6 0 0 0-.3-1.47q-.18-.75-.33-1.5c-.21-1.07-.42-2.13-.54-3.21-.01-.11-.15-.1-.14-.01m-24.42 71.8c-.66-1.82-1.33-3.64-2-5.45q-2.06-5.38-4.27-10.71c-1.47-3.55-2.92-7.1-4.48-10.6a27.7 27.7 0 0 0-2.46-4.7 4.87 4.87 0 0 0-3.59-2.39c-3.82-.28-5.21 4-5.94 6.9 0 .09.11.11.14 0 .52-1.43 1.95-5.46 4.64-6 1.81-.37 3.57.51 5.6 4.73 5.07 10.51 13 32.46 13.57 33.87.32.75.86.57.65-.27-.51-1.81-1.21-3.59-1.86-5.38" style="fill:#a6a6a6"/><path d="M365 119s.19-11.58-5.13-4.4c-8.84 11.94-4.07 31.55-4.07 31.55s16.89-16.88 17.34-25.19c.65-12.37-8.14-1.96-8.14-1.96" style="fill:#16a34a"/><path d="M370.16 123.29c-1.48.73-3 1.36-4.54 2l-2.16.91-1.48.59c.94-2.45 1.9-4.88 2.77-7.35 0-.1-.11-.15-.16-.07a51 51 0 0 0-2.31 4.74l-1.55-2.27a31 31 0 0 1-1.72-2.66.07.07 0 1 0-.12.07c.53.91 1 1.87 1.52 2.79s1 1.76 1.64 2.6c-.48 1.14-.93 2.3-1.35 3.46-.6-.88-1.28-1.71-1.84-2.62-.05-.08-.17 0-.12.07.65 1 1.15 2.09 1.77 3.1-.28.79-.56 1.58-.82 2.37-.47 1.46-.89 2.93-1.3 4.41a.28.28 0 0 0-.09.34c-.69 2.52-1.3 5.05-1.89 7.6a.07.07 0 0 0 .14 0c.59-2.52 1.34-5 2.15-7.49a2.7 2.7 0 0 1 .62-.3l.65-.34q.72-.37 1.44-.78c.94-.52 1.88-1 2.86-1.47.08 0 0-.16-.07-.12-1.15.55-2.32 1-3.51 1.47-.56.22-1.11.45-1.66.69h-.08c.43-1.28.87-2.56 1.32-3.82s.92-2.49 1.39-3.72c.67-.28 1.31-.64 2-1l2.19-1.06c1.47-.72 2.92-1.47 4.4-2.14.06.08-.01-.04-.09 0" style="fill:#263238"/><path d="m358.44 127.53-.49-.78a19 19 0 0 1-.94-1.69c0-.08-.16 0-.12.08.29.57.6 1.14.9 1.71a11.4 11.4 0 0 0 1 1.65.13.13 0 0 0 .22-.13c-.18-.29-.38-.56-.57-.84m13.1-7.28c-.88.38-1.78.69-2.67 1s-1.78.69-2.65 1.07c-.05 0 0 .1 0 .08.9-.3 1.79-.62 2.68-1s1.75-.74 2.66-1c.1-.04.06-.18-.02-.15m26.7 9.8c-2.46-7.84-5.06-15.63-8-23.32-1.44-3.83-2.93-7.64-4.52-11.41a87 87 0 0 0-5.3-10.8 22.5 22.5 0 0 0-5.93-7 8.92 8.92 0 0 0-8.49-1.35c-3.35 1.35-5.57 4.28-7.36 7.3-2 3.39-3.71 7-5.47 10.48-.44.89-.88 1.78-1.31 2.68a.07.07 0 1 0 .12.06c1.71-3.47 3.53-6.89 5.51-10.22 1.82-3.08 3.66-6.4 6.81-8.31a9 9 0 0 1 4.87-1.41 8 8 0 0 1 3.88 1.25 18.2 18.2 0 0 1 5.72 6.33c4.07 6.73 6.86 14.17 9.65 21.49s5.41 15 7.84 22.54 4.79 15.28 7.57 22.78c.35.92.72 1.84 1.09 2.75.25.62 1.24.36 1-.29-2.73-7.81-5.21-15.68-7.68-23.55" style="fill:#a6a6a6"/><path d="M358.41 84.45s2.3-9.59-3.76-10.86S336 97.07 338.5 127.7c0 0 25.53-20.48 32-35.84s-5.5-15.22-12.09-7.41" style="fill:#16a34a"/><path d="M364.47 90.14c-3.25.87-6.56 1.47-9.81 2.36l1.28-2.58a30 30 0 0 0 1.76-3.63c0-.08-.1-.15-.15-.08a25 25 0 0 0-1.8 3.12 269 269 0 0 0-4.34 8.31c0-.13-.07-.26-.11-.39-.14-.57-.3-1.14-.45-1.71l-.85-3.32c-.57-2.24-1.17-4.49-1.61-6.76 0-.09-.15 0-.13 0 .43 2.28.8 4.58 1.28 6.85.24 1.12.51 2.23.79 3.34.14.57.28 1.14.44 1.71.08.31.16.64.27 1-.14.26-.28.52-.41.79-1.81 3.65-3.46 7.37-5 11.13a3.5 3.5 0 0 0-.18-.51c-.12-.33-.25-.66-.38-1-.28-.72-.58-1.44-.89-2.15s-.59-1.34-.89-2-.74-1.49-1-2.26a.07.07 0 1 0-.12 0 21 21 0 0 1 .9 2.31c.26.7.51 1.4.77 2.09s.51 1.4.77 2.1c.13.33.25.67.38 1 .06.17.13.34.2.5a.9.9 0 0 0 .25.37c-.27.65-.55 1.3-.81 2-1.07 2.6-2.09 5.23-3.12 7.85 0 .08.08.15.12.06 1-2.39 2.05-4.76 3.12-7.12 1.21-.26 2.4-.67 3.58-1l3.76-1a.07.07 0 1 0 0-.13c-1.25.35-2.5.71-3.75 1s-2.33.57-3.45.93c.94-2.07 1.91-4.13 2.88-6.2l1.06-2.25a7.5 7.5 0 0 0 1.47-.34l1.71-.45c1.07-.29 2.13-.6 3.19-.9 2.2-.62 4.39-1.28 6.6-1.87a.07.07 0 1 0 0-.13c-2.22.56-4.45 1-6.68 1.58-1.08.25-2.15.5-3.23.77l-1.71.44c-.33.08-.67.15-1 .25.84-1.77 1.66-3.53 2.5-5.29a.2.2 0 0 0 .05-.1q1.22-2.56 2.46-5.13c.11-.23.23-.46.34-.7 3.4-.79 6.71-1.9 10.1-2.73-.04-.02-.07-.16-.16-.13m-.14 6.19-.78.21a.06.06 0 1 0 0 .12l.79-.2a.07.07 0 1 0-.01-.13" style="fill:#263238"/><path d="M362.58 96.8c-1 .26-2.09.52-3.14.76l-1.58.37a6.4 6.4 0 0 0-1.44.4.05.05 0 0 0 0 .1 6 6 0 0 0 1.49-.29l1.57-.39c1-.26 2.08-.54 3.12-.82.11-.02.07-.15-.02-.13m-6.5 12.2a44 44 0 0 0-6.55 1.12v.05c2.18-.37 4.34-.82 6.54-1 .1-.06.1-.17.01-.17m-11.17-7-.21-.54c-.17-.41-.35-.81-.52-1.21-.34-.76-.69-1.51-1.05-2.26 0-.07-.15 0-.12 0 .31.79.62 1.59.91 2.39.15.39.28.79.43 1.18a3.5 3.5 0 0 0 .46 1.1.16.16 0 0 0 .27-.11 1.5 1.5 0 0 0-.17-.55m36.26-35.12c-1.54-1.65-3.54-3.85-6.08-3-2.1.7-2.48 3.13-2.46 5.05.07 5.94 1.53 11.84 2.77 17.62 2.62 12.22 5.3 24.43 8.43 36.52q1.29 5 2.68 10c.94 3.4 1.84 6.84 3 10.19a.26.26 0 0 0 .5-.15c-.75-2.92-1.63-5.82-2.42-8.73s-1.5-5.7-2.21-8.57q-2.16-8.68-4.13-17.43c-1.31-5.79-2.58-11.59-3.86-17.38-.64-2.9-1.28-5.79-1.91-8.69s-1.22-5.62-1.64-8.47c-.23-1.59-.41-3.2-.49-4.8a6.66 6.66 0 0 1 .51-3.45 3 3 0 0 1 3.7-1.28 8.35 8.35 0 0 1 3.52 2.69c.06.05.16 0 .09-.12" style="fill:#a6a6a6"/><path d="M380.23 66.15s-4.12-6.94 1.58-4.44c9.48 4.17 13.36 17.69 13.36 17.69S379.12 75 376 70.14c-4.7-7.25 4.23-3.99 4.23-3.99" style="fill:#16a34a"/><path d="m390.77 74.6-.56-.51a5 5 0 0 0-.17-.64c-.09-.32-.18-.64-.26-1-.15-.64-.29-1.28-.43-1.92 0-.08-.15 0-.13 0q.19.95.42 1.89l.21.94c0 .12 0 .27.08.41-.77-.71-1.55-1.4-2.35-2.07l-.7-.57a15 15 0 0 1-.7-2.44c-.22-.87-.44-1.75-.64-2.63 0-.09-.15 0-.13 0 .21.91.41 1.83.6 2.75a19 19 0 0 0 .47 2c-1.83-1.47-3.72-2.86-5.63-4.22-.06 0-.14.06-.08.11 1.19.89 2.36 1.82 3.51 2.77-1.74.06-3.46.28-5.19.48-.09 0-.09.15 0 .14 1.83-.2 3.68-.22 5.52-.3l2.73 2.3c.37.31.73.63 1.09.95h-.07l-.56.07-1.19.2c-.82.15-1.63.32-2.44.49a.07.07 0 0 0 0 .13c.8-.19 1.6-.34 2.41-.46l1.28-.18.56-.08h.17l1.86 1.62c1.09 1 2.12 2 3.26 2.9a.06.06 0 1 0 .09-.09 38 38 0 0 0-3.03-3.04" style="fill:#263238"/><path d="M385.05 67c-.07-.29-.14-.58-.22-.87a13 13 0 0 1-.42-1.86c0-.1-.16-.08-.13 0 .16.61.25 1.23.39 1.85.06.3.14.61.22.91 0 .14.08.28.11.42a1.6 1.6 0 0 0 .15.43.07.07 0 0 0 .12 0 1.2 1.2 0 0 0-.09-.41c-.04-.12-.08-.27-.13-.47m-.89 3.61c-.54 0-1.08.16-1.61.26s-1.17.2-1.76.28a.07.07 0 1 0 0 .13c1.11-.22 2.26-.31 3.37-.56.08-.02.06-.12 0-.11m4.38-1.11c.06 0 .07.21.09.28l.07.24c0 .18.09.35.13.53s.09.35.14.52a1.2 1.2 0 0 0 .14.46h.06a.5.5 0 0 0 0-.22l-.06-.25-.15-.52c0-.17-.09-.35-.14-.52l-.06-.24c0-.08-.09-.23-.06-.3s-.28-.09-.16.02m8.63 37.69c-3.64-1-7.35-3.1-11.2-1.79-3.18 1.08-4.47 4.29-4.72 7.4a29 29 0 0 0 .13 4.92q.3 3.3.7 6.59c.53 4.32 1.21 8.62 2.07 12.88.47 2.38 1 4.75 1.56 7.1a62 62 0 0 0 2 7.13.38.38 0 0 0 .73-.19c-.34-2-.92-4-1.37-6s-.9-4-1.31-6.06q-1.23-6.07-2.12-12.22c-.56-3.86-1.15-7.77-1.33-11.68-.14-2.79.07-6.19 2.4-8.11 3.56-2.93 8.58-.9 12.43.19.06-.01.12-.13.03-.16" style="fill:#a6a6a6"/><path d="M393.47 106.29S388 99.86 391.21 97c4.8-4.35 26 6.6 32.88 33.19 0 0-13.83-1.89-25-5.72s-16.86-12.24-14.06-16 8.44-2.18 8.44-2.18" style="fill:#16a34a"/><path d="M420.28 125.34a21 21 0 0 0-2.36-2c-.82-.69-1.64-1.37-2.47-2-1.63-1.3-3.25-2.6-4.89-3.88l-.81-.62c0-.1 0-.21-.05-.32l-.12-.8c-.08-.6-.2-1.2-.31-1.79-.22-1.17-.45-2.35-.57-3.53 0-.09-.15-.07-.14 0 .19 1.18.26 2.39.35 3.58 0 .58.07 1.17.14 1.76l.06.6c-2-1.53-4-3-6-4.43a3.1 3.1 0 0 0-.19-.87l-.3-1.16c-.22-.88-.45-1.76-.64-2.64a51 51 0 0 1-1-5.23c0-.08-.15-.06-.13 0 .21 1.76.38 3.54.7 5.28.16.86.33 1.71.53 2.56q.15.63.33 1.26l.09.38c-.63-.42-1.26-.84-1.91-1.24-2-1.21-3.95-2.36-6-3.51-.07 0-.15.07-.07.12a99 99 0 0 1 10 6.9l1.8 1.38-.39.09c-.5.12-1 .28-1.49.42-1 .28-2 .56-3 .86-2 .58-3.95 1.21-5.94 1.74-.09 0-.06.16 0 .14 2-.53 4.08-1 6.13-1.43q1.5-.34 3-.72a11.7 11.7 0 0 0 2.29-.62l3.68 2.81a5 5 0 0 0-.52.18l-1 .37-1.79.68c-1.23.48-2.46 1-3.7 1.45-.08 0 0 .16.06.13 1.26-.47 2.54-.89 3.81-1.3l1.83-.58.91-.28a1.84 1.84 0 0 0 .77-.33l3.13 2.39c1 .73 1.93 1.46 2.91 2.18a25 25 0 0 0 3.05 2.16c.19.01.28-.07.22-.14" style="fill:#263238"/><path d="M406.92 106.83a19 19 0 0 1 .42 2.62c.11.91.19 1.82.23 2.73a.09.09 0 1 0 .17 0c-.05-.9-.14-1.8-.26-2.69s-.31-1.78-.42-2.67c-.01-.1-.16-.07-.14.01m-6.46 8.17a1 1 0 0 0-.72 0l-1.13.27c-.7.16-1.4.35-2.1.53-1.45.37-2.9.77-4.35 1.13-.09 0-.06.16 0 .13 1.38-.34 2.76-.64 4.13-1 .68-.17 1.35-.32 2-.5l1-.25a3.4 3.4 0 0 1 1.13-.22.07.07 0 0 0 .04-.09m12.67 8c-.68.2-1.35.43-2 .67l-1 .35-.49.17a3 3 0 0 1-.63.2c-.1 0-.05.18 0 .13a3 3 0 0 1 .59-.2l.53-.17 1-.32c.67-.22 1.35-.43 2-.68.13-.01.08-.15 0-.15m2.92-4.37-.21-1.21-.45-2.36c0-.08-.15-.06-.13 0 .11.78.23 1.56.34 2.33.06.39.11.78.18 1.17l.09.54a1.4 1.4 0 0 0 .14.54.09.09 0 0 0 .16 0 2.8 2.8 0 0 0-.12-1.01" style="fill:#a6a6a6"/><path d="m416.3 137.03 4.17 9.17 12.29 27.05-32.41 17.16-15.46-25.38-5.24-8.6z" style="fill:#ebebeb"/><path d="m416.3 137.03 4.17 9.17-35.58 18.83-5.24-8.6z" style="fill:#dbdbdb"/><path d="M373.46 139.87h47.08v10.05h-47.08z" style="fill:#ebebeb" transform="rotate(-27.89 397.03 144.89)"/><path d="m143.8 346.5-78.56-10.88-33.14 23.25 77.47 15.85z" style="fill:#dbdbdb"/><path d="m139 346.73-31.33 25.91-72.6-14.8 32.06-22.31s21.22.23 22.23.42 10.68 2.9 10.68 2.9 13.2.69 14.11.88 24.85 7 24.85 7" style="fill:#fff"/><path d="M100.08 338.85q-3.66 3.38-7.38 6.67l-7.47 6.58-7.55 6.48Q73.89 361.81 70 365q3.67-3.36 7.39-6.67l7.47-6.57 7.55-6.49q3.82-3.27 7.67-6.42m31.45 8.58c-2.59-.67-5.19-1.37-7.77-2.09l-7.76-2.19-1.93-.55c-.32-.08-.65-.18-1-.24s-.67-.08-1-.12l-4-.45q-4-.45-8-1 4 .27 8 .63l4 .38c.34 0 .67 0 1 .11s.66.16 1 .24l2 .53c2.57.76 5.15 1.51 7.71 2.3s5.22 1.6 7.75 2.45m-2.19 1.68c-2.6-.68-5.19-1.37-7.78-2.09l-7.74-2.19-1.93-.55-1-.25c-.32 0-.67-.07-1-.11l-4-.45q-4-.45-8-1 4 .27 8 .63l4 .38c.33 0 .66 0 1 .11s.67.16 1 .24l1.94.53c2.57.76 5.15 1.51 7.71 2.3s5.25 1.6 7.8 2.45m-2.2 1.68q-3.81-1-7.6-2.05l-7.54-2.13-1.89-.54a12 12 0 0 0-1.88-.44l-3.9-.45q-3.91-.45-7.81-1c2.62.16 5.23.35 7.85.58 1.3.11 2.61.25 3.91.39a11.3 11.3 0 0 1 1.95.43l1.9.52c2.52.74 5 1.47 7.54 2.25s4.98 1.65 7.47 2.44m-2.2 1.68q-3.75-1-7.49-2l-7.45-2.1c-1.24-.33-2.5-.75-3.71-1l-3.84-.45q-3.86-.45-7.69-1c2.58.16 5.15.35 7.73.57 1.29.11 2.57.24 3.86.39s2.53.64 3.78 1c2.48.74 5 1.45 7.43 2.22s4.93 1.55 7.38 2.37m-2.2 1.68-7.46-2-7.43-2.1c-1.23-.33-2.49-.74-3.7-1s-2.55-.29-3.82-.45c-2.56-.29-5.11-.61-7.67-1 2.58.15 5.14.34 7.71.57 1.29.11 2.56.24 3.85.39s2.52.64 3.76 1c2.48.73 5 1.44 7.41 2.21s4.91 1.56 7.35 2.38m-2.2 1.67c-2.48-.64-5-1.3-7.43-2l-7.41-2.09c-1.23-.33-2.48-.73-3.68-1s-2.55-.29-3.82-.45c-2.54-.3-5.09-.61-7.64-1q3.85.22 7.69.56c1.28.12 2.54.24 3.84.4s2.5.64 3.74 1c2.47.73 4.93 1.44 7.38 2.21s4.9 1.55 7.33 2.37m-2.19 1.68c-2.46-.64-4.91-1.29-7.34-2l-7.32-2.06c-1.21-.33-2.44-.72-3.64-1s-2.5-.31-3.74-.47c-2.52-.29-5-.6-7.54-1 2.53.14 5 .33 7.58.55 1.27.12 2.51.21 3.8.42s2.46.64 3.68 1c2.43.71 4.86 1.42 7.28 2.17s4.83 1.59 7.24 2.39m-2.2 1.68c-2.45-.64-4.9-1.29-7.34-2l-7.31-2.06c-1.22-.33-2.44-.72-3.65-1s-2.49-.31-3.74-.47c-2.52-.3-5-.61-7.54-1 2.53.14 5.06.33 7.58.55 1.27.12 2.51.21 3.8.41s2.46.65 3.68 1c2.43.72 4.87 1.42 7.28 2.18s4.83 1.59 7.24 2.39m-1.77 1.82c-2.49-.65-5-1.32-7.45-2l-7.42-2.11-3.7-1c-1.2-.25-2.52-.33-3.79-.5-2.55-.3-5.1-.61-7.65-1 2.57.14 5.13.33 7.7.56 1.28.13 2.54.2 3.86.44s2.49.67 3.72 1c2.46.74 4.93 1.45 7.39 2.23s4.9 1.59 7.34 2.38m-2.2 1.75c-2.48-.66-5-1.33-7.42-2l-7.4-2.12-3.69-1.06c-1.19-.26-2.52-.33-3.77-.5-2.55-.3-5.1-.61-7.64-1q3.84.23 7.68.56c1.28.14 2.53.19 3.85.46s2.48.66 3.71 1c2.46.74 4.92 1.45 7.36 2.24s4.89 1.6 7.32 2.42M110 364.6c-2.4-.67-4.81-1.33-7.2-2s-4.78-1.42-7.17-2.12l-3.63-1.1a8.5 8.5 0 0 0-1.8-.37l-1.85-.21c-2.48-.3-5-.61-7.42-1 2.49.13 5 .32 7.46.54l1.87.18c.31 0 .62.07.94.13s.62.15.92.23c1.21.34 2.41.69 3.6 1.06 2.38.74 4.77 1.45 7.14 2.24s4.77 1.6 7.14 2.42m-2.21 1.57c-2.44-.57-4.87-1.14-7.29-1.75s-4.84-1.24-7.26-1.85c-1.21-.29-2.43-.64-3.62-.89l-3.69-.62c-2.46-.44-4.92-.89-7.37-1.4 2.49.29 5 .63 7.43 1l3.71.57c1.26.25 2.44.58 3.66.9 2.41.64 4.83 1.27 7.23 2s4.81 1.32 7.2 2.04M72.23 359c-2.31-.51-4.6-1.08-6.88-1.68l-1.71-.43a12 12 0 0 0-1.72-.33l-3.5-.52-7-1.09c-2.33-.36-4.66-.77-7-1.15 2.35.29 4.69.55 7 .87l7 .93 3.5.5a13 13 0 0 1 1.77.31c.58.13 1.15.3 1.72.45q3.48.94 6.82 2.14m2.08-2.08c-2.26-.38-4.51-.8-6.74-1.29-1.12-.22-2.24-.48-3.34-.66l-3.39-.53-6.77-1.11c-2.26-.36-4.51-.78-6.76-1.17 2.27.3 4.54.56 6.8.88l6.79 1a66 66 0 0 1 6.77 1.18c2.23.46 4.44 1.05 6.64 1.7m2.02-1.87c-2.24-.37-4.47-.78-6.69-1.26l-3.33-.68-3.37-.43-6.74-.9c-2.25-.29-4.5-.64-6.74-1 2.25.23 4.52.42 6.77.68l6.77.75 3.39.4c1.14.19 2.23.46 3.34.71 2.27.52 4.42 1.1 6.6 1.73m1.75-1.41c-2.23-.5-4.42-1.15-6.62-1.73a9.5 9.5 0 0 0-1.63-.35l-1.7-.17-3.41-.34q-6.81-.69-13.61-1.46 6.82.45 13.65 1l3.41.31 1.71.16a9 9 0 0 1 1.71.34 64 64 0 0 1 6.49 2.24M80 352c-2.23-.5-4.42-1.15-6.62-1.73a8.5 8.5 0 0 0-1.63-.35l-1.7-.18-3.41-.33q-6.81-.69-13.61-1.46 6.84.45 13.65 1l3.41.31 1.71.16a9 9 0 0 1 1.71.34A64 64 0 0 1 80 352m1.89-1.75c-2.24-.49-4.43-1.15-6.62-1.73a9.6 9.6 0 0 0-1.64-.34l-1.7-.18-3.4-.33c-4.54-.46-9.08-.94-13.62-1.47q6.84.45 13.66 1l3.41.3 1.7.17a8 8 0 0 1 1.71.34 64 64 0 0 1 6.5 2.24m1.9-1.69c-2.24-.5-4.42-1.15-6.62-1.73a9.6 9.6 0 0 0-1.64-.35l-1.7-.17-3.4-.34q-6.81-.68-13.62-1.46 6.84.45 13.66 1l3.41.31 1.7.16a9 9 0 0 1 1.72.35 64 64 0 0 1 6.49 2.23m2.54-1.48c-2.24-.5-4.43-1.15-6.62-1.73a9.6 9.6 0 0 0-1.64-.35l-1.7-.17-3.4-.34q-6.81-.69-13.62-1.46 6.84.45 13.66 1l3.41.31 1.7.16a8.6 8.6 0 0 1 1.71.34 64 64 0 0 1 6.5 2.24m2.46-1.46c-2.23-.5-4.42-1.15-6.62-1.73a8.5 8.5 0 0 0-1.63-.35l-1.7-.18-3.41-.36q-6.81-.69-13.61-1.46 6.83.45 13.65 1l3.41.31 1.71.16a9 9 0 0 1 1.71.34 64 64 0 0 1 6.49 2.27m1.91-1.7c-2.24-.49-4.42-1.14-6.61-1.72a9.7 9.7 0 0 0-1.63-.35l-1.7-.15-3.41-.27c-4.54-.38-9.08-.77-13.61-1.21q6.83.31 13.65.78l3.4.25 1.71.13a8 8 0 0 1 1.71.34 67 67 0 0 1 6.49 2.2m1.9-1.69c-2.23-.49-4.41-1.14-6.6-1.72a8 8 0 0 0-1.62-.34l-1.7-.12-3.41-.21c-4.54-.29-9.08-.58-13.61-.93q6.82.18 13.64.5l3.41.18 1.7.1a8.6 8.6 0 0 1 1.72.34 68 68 0 0 1 6.47 2.2m1.9-1.69c-2.22-.49-4.4-1.14-6.59-1.72a8 8 0 0 0-1.61-.34l-1.7-.07-3.4-.1c-4.53-.13-9.07-.27-13.61-.46q6.81-.06 13.62 0l3.41.07 1.71.06a8 8 0 0 1 1.71.33 64 64 0 0 1 6.46 2.23m11.12 27.93q-3.72-.75-7.41-1.57l-7.39-1.67c-1.23-.27-2.46-.59-3.68-.84l-3.72-.7c-2.48-.49-5-1-7.42-1.55 2.51.35 5 .74 7.49 1.15l3.73.64c1.26.26 2.48.53 3.71.82 2.46.6 4.92 1.16 7.36 1.79s4.89 1.26 7.33 1.93M70.73 361q-3.74-.68-7.46-1.42L55.82 358l-3.71-.76-3.75-.63c-2.49-.44-5-.9-7.47-1.39 2.52.29 5 .63 7.53 1l3.76.56c1.27.23 2.5.48 3.74.75 2.48.54 5 1.05 7.42 1.63s4.94 1.18 7.39 1.84" style="fill:#dbdbdb"/><path d="M67.9 182.68h2.09v13.37H67.9z" style="fill:#ebebeb" transform="rotate(-61.27 68.934 189.349)"/><path d="M68.43 182.37h1.38v13.37h-1.38z" style="fill:#c7c7c7" transform="rotate(-61.27 69.114 189.045)"/><path d="M52.37 172.68a7.56 7.56 0 0 0 5.05 6.45 8 8 0 0 0 1.38.31 10 10 0 0 0 2.13 0l-.28-3a6.4 6.4 0 0 1-1.15 0 4.45 4.45 0 0 1-4.12-4.13c-.37-3.14 1.89-8.62 4.6-9.71.19-.09.79-.06 2.46 1.37.3.27.65.58 1 .95a6 6 0 0 0 .94.82l.78-1.3.85-1.26a5 5 0 0 1-.48-.45 18 18 0 0 0-2.36-2c-1.31-.91-2.86-1.54-4.35-.94-4.39 1.82-6.92 8.96-6.45 12.89" style="fill:#ebebeb"/><path d="M60.65 176.45a6.4 6.4 0 0 1-1.15 0l-.7 3a10 10 0 0 0 2.13 0Zm2.55-15.7-.76 3.25c.3.27.65.58 1 .95a6 6 0 0 0 .94.82l.78-1.3.85-1.26a5 5 0 0 1-.48-.45 18 18 0 0 0-2.33-2.01" style="fill:#c7c7c7"/><path d="M97.18 174.88s-8 11.18-13.15 14.88-8.89 2.39-11 1.24l-3.83-2.1-3.84-2.1c-2.11-1.16-5.19-3.58-4.86-9.94s5.5-19.09 5.5-19.09Z" style="fill:#ebebeb"/><path d="M90.59 181.45a.86.86 0 1 1 1.17-.34.87.87 0 0 1-1.17.34m.75-1.37a.7.7 0 0 0-.67 1.23.7.7 0 1 0 .67-1.23M70.48 165.4a.86.86 0 1 1 1.17-.34.87.87 0 0 1-1.17.34m.75-1.37a.71.71 0 0 0-1 .28.7.7 0 1 0 1.23.67.71.71 0 0 0-.23-.98ZM65.55 177a.86.86 0 1 1 1.17-.34.88.88 0 0 1-1.17.34m.75-1.37a.7.7 0 0 0-.67 1.23.7.7 0 0 0 1-.28.71.71 0 0 0-.33-.93Zm.25-14.95a.85.85 0 1 1 1.16-.34.86.86 0 0 1-1.16.34m.74-1.36a.7.7 0 0 0-1 .27.7.7 0 0 0 1.23.68.69.69 0 0 0-.23-.95m7.15 11.77a.86.86 0 1 1 1.17-.34.86.86 0 0 1-1.17.34m.75-1.36a.7.7 0 0 0-1 .28.7.7 0 1 0 1-.28m3.04 13.83a.85.85 0 1 1 .82-1.5.84.84 0 0 1 .34 1.16.86.86 0 0 1-1.16.34m.75-1.37a.7.7 0 0 0-.68 1.23.7.7 0 0 0 .68-1.23m1.2-14.03a.86.86 0 0 1 .82-1.51.86.86 0 0 1-.82 1.51m.75-1.37a.7.7 0 1 0 .28 1 .7.7 0 0 0-.28-1M74 177.3a.86.86 0 1 1 1.17-.34.85.85 0 0 1-1.17.34m.75-1.36a.7.7 0 1 0-.67 1.22.7.7 0 1 0 .67-1.22m-13.17 6.27a.86.86 0 1 1 1.17-.34.88.88 0 0 1-1.17.34m.75-1.37a.71.71 0 0 0-.95.28.7.7 0 0 0 .28.95.7.7 0 1 0 .67-1.23m27.12-6.14a.85.85 0 1 1 1.16-.34.85.85 0 0 1-1.16.34m.75-1.36a.7.7 0 0 0-.68 1.22.7.7 0 1 0 .68-1.22m-25.26-3.64a.86.86 0 1 1 1.16-.34.86.86 0 0 1-1.16.34m.75-1.37a.7.7 0 1 0 .27.95.69.69 0 0 0-.27-.95m15.86 7.55a.87.87 0 0 1-.34-1.17.85.85 0 0 1 1.16-.33.85.85 0 1 1-.82 1.5m.75-1.37a.7.7 0 0 0-1 .28.7.7 0 0 0 1.23.67.71.71 0 0 0-.23-.95m-12.65 10.65a.86.86 0 1 1 1.16-.34.86.86 0 0 1-1.16.34m.75-1.37a.7.7 0 1 0 .27 1 .69.69 0 0 0-.27-1m4.08 7.55a.87.87 0 0 1-.34-1.17.86.86 0 1 1 .34 1.17m.75-1.37a.7.7 0 0 0-.67 1.23.7.7 0 1 0 .67-1.23m9.92-7.42a.85.85 0 1 1 1.16-.34.86.86 0 0 1-1.16.34m.74-1.37a.7.7 0 0 0-.67 1.23.7.7 0 1 0 .67-1.23m-3.78 8.52a.86.86 0 1 1 1.17-.34.87.87 0 0 1-1.17.34m.75-1.37a.7.7 0 0 0-.67 1.23.7.7 0 0 0 1-.28.71.71 0 0 0-.33-.95" style="fill:#fff"/><path d="M270.29 282.67h2.69v60.04h-2.69z" style="fill:#dbdbdb" transform="rotate(-72.99 271.655 312.694)"/><path d="M256.03 293.22h2.69v30.22h-2.69z" style="fill:#a6a6a6" transform="rotate(-72.99 257.395 308.335)"/><path d="m268.33 313.08-55.95-17.11 4.3-40.24 55.95 17.12z" style="fill:#dbdbdb"/><path d="M245.91 285.45a3.22 3.22 0 0 1-4.15 2.46 4 4 0 0 1-2.66-4.54 3.22 3.22 0 0 1 4.15-2.46 4 4 0 0 1 2.66 4.54" style="fill:#fff"/><path d="M404.68 383c1.58-1.23 31.62-46.27 31.69-48.71 0-.92-6.29-5.68-14.06-11.21q-2.52-1.8-5.21-3.65c-2.1-1.46-4.23-2.94-6.31-4.35-9.35-6.36-17.71-11.78-17.71-11.78l-19.64 29.26 17.66 11.84 6.37 4.27 5.38 3.39s-3.79 22.39-3.56 25.07 3.82 7.04 5.39 5.87" style="fill:#f7a9a0"/><path d="M404.68 383c1.58-1.23 31.62-46.27 31.69-48.71 0-.92-6.29-5.68-14.06-11.21q-2.52-1.8-5.21-3.65c-2.1-1.46-4.23-2.94-6.31-4.35l-19.69 29.27 6.37 4.27 5.38 3.39s-3.79 22.39-3.56 25.07 3.82 7.09 5.39 5.92" style="fill:#fff"/><path d="M404.65 383.13c1-.8 14-19.9 23-34 2.1-3.27 4-6.28 5.48-8.73 2.05-3.38 3.35-5.7 3.37-6.21 0-1.13-9.34-8-19.37-14.95l-19.74 29.4 5.41 3.41s-3.81 22.52-3.59 25.22 3.86 7.08 5.44 5.86" style="fill:#16a34a"/><path d="M403.28 381.27c4.88-7.72 25.28-38.38 30.69-45.64 0-.05.08 0 0 0-4.66 7.75-25.31 38.24-30.61 45.68-.07.2-.19.12-.08-.04M400.42 352c1.43-3.36 4.33-6.71 8-7.57.14 0 .18.17.09.25a50 50 0 0 0-7.69 7.56.23.23 0 0 1-.4-.24m-.14 3c1.43-3.36 4.33-6.7 8-7.57.14 0 .19.17.09.25a51 51 0 0 0-7.69 7.56.23.23 0 0 1-.4-.24m-.14 3c1.43-3.36 4.33-6.71 8-7.57.14 0 .19.17.09.24a50.5 50.5 0 0 0-7.69 7.57.23.23 0 0 1-.4-.24m-.14 3c1.43-3.36 4.33-6.71 8-7.57.14 0 .19.17.09.24a51 51 0 0 0-7.69 7.57.23.23 0 0 1-.4-.24" style="fill:#263238"/><path d="M395 354.37c3.06-1 5.56-3.32 8.12-5.18a.45.45 0 0 0-.06-.72.1.1 0 0 0-.06-.14 19.14 19.14 0 0 0-9.91 0c-1.88.55-4.07 2.25-3.23 4.5s3.33 2.17 5.14 1.54m-2.91-.84c-3.63-1.66.44-4 1.84-4.38a20 20 0 0 1 2.77-.45c1.93-.2 3.86-.13 5.79-.14-1.31.83-2.54 1.77-3.82 2.65-1.56 1.06-4.61 3.23-6.61 2.32Z" style="fill:#263238"/><path d="M405.07 335.32c-2.34-.52-3.73 1.88-4 3.81a19.1 19.1 0 0 0 1.31 9.83.1.1 0 0 0 .15 0 .45.45 0 0 0 .72 0c1.49-2.78 3.43-5.58 4-8.74.35-1.85.04-4.41-2.18-4.9m-.44 8.95c-.7 1.39-1.47 2.74-2.12 4.15-.25-1.91-.58-3.81-.64-5.75a22 22 0 0 1 .07-2.8c.15-1.44 1.95-5.79 4.08-2.42 1.18 1.86-.56 5.17-1.39 6.82M294.38 201.43s46.69 68.24 55.22 74.39 58.1 36.26 58.1 36.26L385.5 345s-52.35-33.18-62.43-43c-21.64-21-53.3-80.36-53.3-80.36Z" style="fill:#263238"/><path d="M380.64 338.75c.48-.91 1.16-1.79 1.73-2.65s1.32-1.93 2-2.9c1.23-1.89 2.49-3.75 3.77-5.61 2.58-3.73 5.24-7.42 8-11l2.28-3c.81-1 1.69-2.07 2.46-3.15.05-.08.15 0 .09.07-1.33 1.86-2.51 3.86-3.77 5.77s-2.51 3.73-3.8 5.58c-2.58 3.73-5.25 7.41-8 11-.76 1-1.5 2-2.26 3-.4.53-.82 1-1.23 1.58s-.67 1-1.08 1.41a.07.07 0 0 1-.19-.1M397 312.34c-3.9-1.94-20.35-12.48-24.65-15.07s-8.52-5.13-12.79-7.68c-4.08-2.45-8.34-4.74-12-7.8s-6.23-6.68-8.87-10.41L330 259.1q-8.7-12.27-17.43-24.51c-5.85-8.18-11.69-16.36-17.61-24.48l-2.2-3c-.06-.08-.19 0-.13.08q8.52 12.41 17.18 24.73t17.46 24.79q4.33 6.15 8.73 12.29a94.5 94.5 0 0 0 8.38 10.91c3.18 3.31 7.06 5.7 11 8.05q6.49 3.91 13 7.81l12.91 7.73c4.11 2.47 14.44 8.46 15.4 9.18.17.2.56-.2.31-.34" style="fill:#455a64"/><path d="M475.39 246.25c0-2-17.62-53.19-19.53-54.72-.72-.59-8.33 1.55-17.44 4.38-2 .61-4 1.16-6.06 1.92-2.54.95-5.08 1.93-7.51 2.9-10.58 4.2-19.29 8.15-19.29 8.15l11 32.41 19.23-7.18 7.89-2.94 5.95-2.22s15.52 16.58 17.78 18 8 1.29 7.98-.7" style="fill:#f7a9a0"/><path d="M475.39 246.25c0-2-17.62-53.19-19.53-54.72-.72-.59-8.33 1.55-17.44 4.38-2 .61-4 1.16-6.06 1.92-2.54.95-5.08 1.93-7.51 2.9 3.35 10 8.07 24.41 11 33.38l7.89-2.94 5.95-2.22s15.52 16.58 17.78 18 7.94 1.29 7.92-.7" style="fill:#fff"/><path d="M475.52 246.38c0-2-17.73-53.49-19.64-55-.89-.71-12 2.6-23.63 6.34l11.42 33.52 6-2.23s15.59 16.68 17.87 18.14 7.99 1.23 7.98-.77" style="fill:#16a34a"/><path d="M473.2 246.35c-3.2-8.56-15.2-43.35-17.69-52.07 0-.07 0-.09.05 0 3.34 8.41 15.08 43.32 17.78 52 .06.2-.07.25-.14.07m-25.04-15.49c-1.8-3.18-2.71-7.51-1.18-10.94 0-.13.24 0 .25.08a50.2 50.2 0 0 0 1.35 10.7.23.23 0 0 1-.42.16m2.32 1.94c-1.8-3.18-2.71-7.51-1.18-10.94.06-.13.24 0 .25.08a50.2 50.2 0 0 0 1.35 10.7.23.23 0 0 1-.42.16m2.32 1.94c-1.8-3.17-2.71-7.51-1.18-10.93.06-.14.24-.05.25.07a50 50 0 0 0 1.35 10.7.23.23 0 0 1-.42.16m2.32 1.95c-1.8-3.18-2.71-7.51-1.18-10.94.06-.13.24-.05.25.08a50.2 50.2 0 0 0 1.35 10.7.23.23 0 0 1-.42.16" style="fill:#263238"/><path d="M446.77 236.65c1.05-3.05.73-6.44.81-9.6 0-.33-.35-.46-.61-.38a.09.09 0 0 0-.15 0 19.13 19.13 0 0 0-6 7.9c-.7 1.83-.67 4.6 1.62 5.3s3.73-1.45 4.33-3.22m-2.43 1.8c-3.52 1.88-2.94-2.79-2.37-4.12a22 22 0 0 1 1.33-2.47 56 56 0 0 1 3.39-4.69c-.13 1.55-.13 3.1-.2 4.65-.09 1.85-.21 5.59-2.15 6.63" style="fill:#263238"/><path d="M437.75 217.07c-1.84 1.55-.77 4.11.59 5.51a19.13 19.13 0 0 0 8.61 4.91.09.09 0 0 0 .12-.09c.27 0 .55-.3.41-.59-1.31-2.88-2.36-6.12-4.51-8.51-1.26-1.39-3.49-2.7-5.22-1.23m6.85 5.78c.68 1.4 1.28 2.82 2 4.2-1.68-1-3.39-1.85-5-3a20.5 20.5 0 0 1-2.19-1.75c-1-1-3.42-5.06.56-4.72 2.24.21 3.82 3.6 4.63 5.27m-174.83-1.14s10.9 9.49 22.65 9.34c0 0 52.46 21.39 72.07 23.77 13.95 1.69 67.79-16.84 67.79-16.84l-11.81-36.06s-46.47 18.29-51.59 18.41c-6.19.14-38-9.46-38.69-10.75A38.67 38.67 0 0 0 307 191Z" style="fill:#263238"/><path d="M296.28 203.82a13 13 0 0 0 7.9 2.62 16.1 16.1 0 0 0 8.68-2.81c.45-.28 1 .33.52.66-5.05 3.83-12.6 4.42-17.29-.28-.09-.11.07-.28.19-.19M285 231.24a35.4 35.4 0 0 1 7.32-1.14c2.55-.23 5.1-.17 7.66-.27.09 0 .12.15 0 .16-2.53.3-5 .8-7.55 1.06a42 42 0 0 1-7.42.39c-.11-.01-.14-.17-.01-.2" style="fill:#455a64"/><path d="M276.34 221.2c1.14 1 2.33 1.86 3.5 2.78s2.16 1.81 3.29 2.62a7 7 0 0 0 3.67 1.4c.73.05 1.47 0 2.2 0h1.21l-.46-.39-1.28-1.11c-1-.82-1.89-1.65-2.82-2.48-1.83-1.64-3.65-3.32-5.58-4.86-.07-.06 0-.18.1-.13 2 1.46 4 2.86 5.93 4.38.95.75 5.37 4.66 5.66 5s.6.61.88.93a5.4 5.4 0 0 1 .84 1c0 .1-.06.17-.15.14a5 5 0 0 1-1.09-.74c-.34-.26-.68-.52-1-.8l-.35-.32c-.66.1-1.37.08-2 .12s-1.43.11-2.14.1a6.6 6.6 0 0 1-3.69-1.2 23.5 23.5 0 0 1-3.19-2.79c-1.2-1.16-2.36-2.36-3.59-3.49-.11-.1-.02-.22.06-.16m148.48 17.66c-.44-.93-.74-2-1.09-3s-.76-2.21-1.15-3.31c-.77-2.11-1.51-4.24-2.23-6.37q-2.19-6.45-4.06-13c-.35-1.2-.68-2.41-1-3.61s-.65-2.59-1.06-3.85c0-.1.08-.13.12 0 .68 2.18 1.58 4.32 2.36 6.47s1.49 4.25 2.2 6.39c1.45 4.3 2.8 8.64 4 13 .33 1.2.7 2.4 1 3.6.19.64.35 1.28.53 1.92s.38 1.13.49 1.71c.07.11-.07.19-.11.05M324.08 243c-8.25-3.31-16.59-6.34-24.89-9.51-2.37-.91-4.74-1.82-7.13-2.68a.08.08 0 0 0-.06.14 222 222 0 0 0 24.72 10c2.41.82 4.84 1.54 7.29 2.24.1.04.17-.12.07-.19m89.06-32q-11.7 4.41-23.48 8.63c-3.94 1.41-7.9 2.8-11.85 4.17-1.92.66-3.83 1.39-5.81 1.86a16.3 16.3 0 0 1-6.31.18 83.5 83.5 0 0 1-11.62-3.16q-5.82-1.83-11.54-3.94T331 214.18a17 17 0 0 1-2.47-1.16 6.6 6.6 0 0 1-1.93-2.2 38.38 38.38 0 0 0-18.7-15.11q-1.14-.44-2.31-.81c-.09 0-.13.12 0 .15a38.64 38.64 0 0 1 16.89 11 37 37 0 0 1 3.19 4c1 1.4 1.68 2.82 3.24 3.61 1.79.92 3.7 1.65 5.56 2.43s3.64 1.49 5.48 2.2q5.69 2.19 11.48 4.1c3.89 1.27 7.82 2.53 11.8 3.48a22 22 0 0 0 5.81.7 20.1 20.1 0 0 0 5.68-1.2c4-1.33 7.95-2.77 11.92-4.19q11.84-4.22 23.59-8.69l3-1.15c.18-.09.1-.34-.09-.34" style="fill:#455a64"/><path d="M248.48 149.49c13.47 13.13 36.2 15.5 55.77.11 17.8-14 22.33-40.53 13.61-53-9.26-13.25-26.67-13.35-34.59-4.08-7.64 9-7.57 20.29-15.37 25.46-3.73 2.48-11.28 3-16.95 6.36-6.33 3.81-11.12 16.71-2.47 25.15" style="fill:#263238"/><path d="M323.29 111a45.5 45.5 0 0 1-4.29 22.47 50.6 50.6 0 0 1-14.39 17.93 43.47 43.47 0 0 1-21 9.29 43 43 0 0 1-22.61-3.12 45 45 0 0 0 22.51 2.43 42 42 0 0 0 10.86-3.3 46 46 0 0 0 9.63-6 55.6 55.6 0 0 0 8.14-7.95 49 49 0 0 0 6.16-9.57 48.4 48.4 0 0 0 3.8-10.75 43.5 43.5 0 0 0 1.19-11.43m-38.44-21.36a22.4 22.4 0 0 0-4.8 5.2 30.4 30.4 0 0 0-3.26 6.24c-.83 2.23-1.73 4.43-2.71 6.62a31.4 31.4 0 0 1-3.63 6.23 21 21 0 0 1-2.46 2.69 14 14 0 0 1-3.1 2 60 60 0 0 1-6.74 2.45 28 28 0 0 0-6.4 2.93 19.4 19.4 0 0 0-5.14 4.83 18.6 18.6 0 0 1 4.89-5.2 28 28 0 0 1 6.41-3.22c2.23-.86 4.52-1.52 6.61-2.55a13 13 0 0 0 2.89-1.87 19 19 0 0 0 2.3-2.6c2.89-3.69 4.54-8.2 6.42-12.55a30.3 30.3 0 0 1 3.55-6.24 21 21 0 0 1 5.17-4.96" style="fill:#263238"/><path d="M263.54 168.2c-3.68 5.06-25.47 19.42-41.75 22.14-6 1-29.11-9.19-34.39-12.65-6.19-4.06 1.3-20 5.58-19.17 5.34 1 27.28 10.65 32.21 11.42 6 .94 21.47-5.67 34.06-8.1 6.48-1.25 7.13 2.46 4.29 6.36" style="fill:#f7a9a0"/><path d="M187.4 177.69c-2-1.18-10.77-7.4-12.82-9.67s-7.47-9.25-5.88-11 3.33.17 3.33.17-1.82-3.31-.07-4.92 4.38 1.45 4.38 1.45-1.63-3.53.24-5 4 2 4 2-1.63-3.16.42-3.73c2.46-.7 4.82 5.47 7.27 7.81.55.53 12 10 12 10Z" style="fill:#f7a9a0"/><path d="M180.37 150.46c1.75 4.53 3.3 6.22 7.13 9.07.07.06 0 .18-.08.13-4-2.46-6.25-4.28-7.27-9.12-.05-.24.14-.29.22-.08m-4.17 2.91c2.23 4.55 3.89 6.39 7.68 9.67.06.05 0 .14-.07.1-4-2.91-6.19-4.78-7.82-9.62-.07-.22.11-.36.21-.15m-3.97 3.99c2.47 4.25 4.2 6.34 8.3 9.06a.09.09 0 0 1-.1.15 16.28 16.28 0 0 1-8.32-9.12c-.11-.29-.04-.36.12-.09" style="fill:#263238"/><path d="M204.21 164.78a59.4 59.4 0 0 0-4.72-7.4c-1.8-2.06-11.33-7.27-12.58-5.28-1.6 2.58 3.31 6.67 6 8.36 0 0-3.72 6-.84 9.66s12.14-5.34 12.14-5.34" style="fill:#f7a9a0"/><path d="M186.7 153c.23 3.41 3.88 5.4 6.34 7.24a.28.28 0 0 1 0 .46c-1.39 2.6-2.6 6.67-1.19 9.45 0 .08-.06.15-.12.07-1.92-2.77-1.06-6.87.65-9.62-2.56-1.84-6.12-4-5.72-7.6z" style="fill:#263238"/><path d="M194.22 182.1s19.3 9.09 27.37 8.59a30.8 30.8 0 0 0 6.38-1.44c15.84-4.45 29.63-14.79 34-18.71 4.58-4.14 5.64-9.93-.93-9.26q-.74.09-1.59.27c-8.29 1.79-31.43 8.4-33.67 8.16S205 161.47 205 161.47Z" style="fill:#dbdbdb"/><path d="M228 189.25c15.84-4.45 29.63-14.79 34-18.71 4.58-4.14 5.64-9.93-.93-9.26ZM198.91 183c1.76-3.06 3.41-6.19 5.05-9.32.82-1.57 1.65-3.15 2.43-4.74s1.64-3.24 2.28-4.94a.08.08 0 0 0-.14-.07c-1 1.5-1.83 3.13-2.69 4.71s-1.61 3-2.39 4.59c-1.62 3.2-3.24 6.4-4.74 9.66-.06.16.13.26.2.11" style="fill:#263238"/><path d="m261.15 201.52 7.59 21.63s33.36-11.88 49.17-28.15c0 0-29.46-30.1-46.39-36.82-.39-.16-.77-.29-1.14-.41a1.2 1.2 0 0 0-.22-.08c-7.55-2.48-12.58 2.21-14.73 7.66-.53 1.35-3.93 21.48-2 27.46 1.71 5.27 7.72 8.71 7.72 8.71" style="fill:#dbdbdb"/><path d="M315.67 192.77c-13.23 14.57-37.46 24.09-47.88 27.68l-1-2.83c9.66-3.38 34-12.87 46.72-27 .83.84 1.55 1.55 2.16 2.15" style="fill:#c7c7c7"/><path d="M311.78 189c-6.37 7-16 13.55-28.75 19.65a183 183 0 0 1-16.91 7.05l-.67-1.9c10.58-3.82 32.73-13 44.88-26.18.51.46.99.93 1.45 1.38" style="fill:#c7c7c7"/><path d="M278.48 166.83c5.28 12.13 13.7 40.69 12.23 46.52-2 7.86-22.06 25.35-27.45 29.24-2.35 1.69-14.53-13.27-13.87-16.3s19.83-15.7 21-17.71-.74-24.06-1.82-35.23c-1.39-14.1 7.83-11.35 9.91-6.52" style="fill:#f7a9a0"/><path d="M236.14 238.34c-3 2-8.68 2-7.95 4.61.65 2.32 4.55 1.89 4.55 1.89s-4.24 1.9-2.83 4.19 5.58.95 5.58.95-3.81 2-2.24 4.13 5.53 1.16 5.53 1.16-.75 1.11 1 2.16c2.58 1.49 8.55-.89 11.38-2.87s11.7-11.33 13-12.79l-12.57-18.24s-6.65 1.21-9.95 2.23-13.22 7.42-11.8 10 8.35-2.06 10.3-2.83 2.45-.44 1.84.59a43.3 43.3 0 0 1-5.84 4.82" style="fill:#f7a9a0"/><path d="M232.91 244.73c5.39-1 7.57-2.33 11.55-6 .07-.07.2 0 .12.11-3.56 3.92-6.06 6-11.64 6.12-.27.04-.29-.18-.03-.23m2.34 5.27c5.51-1.5 7.89-3 12.33-6.46.07-.05.16.05.1.11-4.07 3.81-6.61 5.84-12.31 6.62-.26 0-.37-.27-.12-.27m3.57 5.21c5.23-1.84 7.92-3.31 11.79-7.27a.1.1 0 1 1 .15.13 18.4 18.4 0 0 1-11.86 7.3c-.34.06-.41-.04-.08-.16" style="fill:#263238"/><path d="m253 221 15.71 19.22s21.81-18 23-24.74c1.73-9.82-6.7-36.19-12.05-47.58s-13.08-7.07-12.08 4.35c1 11.1 2.3 33.49 2 34.66C269.3 208.42 253 221 253 221" style="fill:#dbdbdb"/><path d="M269.89 204.87c0-.65-.15-3.65-.17-4.16-.07-2.23-.14-4.46-.25-6.69s-.2-4.45-.37-6.67-.38-4.06-.51-6.91c0-.1-.15-.09-.15 0 0 1.34.05 2.72.09 4.1l-.12-.35a13 13 0 0 1-.71-1.81c0-.1-.18 0-.14.06.23.6.88 3.19 1 3.37v1.08c0 2.11.11 4.22.18 6.33s.17 4.2.26 6.31c0 1 .63 6.9.06 7.74a36.4 36.4 0 0 1-4.48 4.28.08.08 0 1 0 .09.12c.87-.76 1.86-1.38 2.76-2.09a8.4 8.4 0 0 0 2-2 4.66 4.66 0 0 0 .46-2.71m22.22 4.63c-.1-1.2-.22-2.39-.37-3.59-.29-2.38-.74-4.76-1.24-7.11a117 117 0 0 0-3.57-12.8 24 24 0 0 0-.36-3c-.2-1.17-.41-2.34-.62-3.51 0-.1-.16-.06-.15 0 .24 1.19.4 2.38.54 3.58l.18 1.71a75 75 0 0 0-3-7.49c0-.06-.12 0-.09 0 1.61 4.51 3.2 9 4.46 13.64a143 143 0 0 1 3.06 14 82 82 0 0 1 1.31 8.24c0 .1.17.09.16 0-.19-1.17-.21-2.43-.31-3.67M271.46 236c-2.14-2.81-4.37-5.55-6.61-8.28-1.13-1.37-2.26-2.74-3.43-4.08s-2.34-2.78-3.65-4a.08.08 0 0 0-.12.1c1 1.51 2.16 2.9 3.29 4.32s2.18 2.67 3.29 4c2.31 2.74 4.63 5.48 7 8.13.14.01.31-.12.23-.19" style="fill:#263238"/><path d="M266.45 158.11c0 .89-2.95 7.24-6.87 7.85-1.27.2-2.88-7.21-2.88-7.21l-3.07-6.83 8.85-8.27s3.98 14.09 3.97 14.46" style="fill:#f7a9a0"/><path d="m253.63 151.92 3.07 6.83a16.6 16.6 0 0 0 7.16-10.21c-.75-2.69-1.37-4.89-1.37-4.89Z" style="fill:#263238"/><path d="M243.23 138.56c-3 12.78 4.26 16.05 7 16.7 2.5.59 11.1 2.29 15.44-10.1s-.63-17.85-6.28-19.51-13.12.13-16.16 12.91" style="fill:#f7a9a0"/><path d="M246.05 137.18a9 9 0 0 0 .9 0 1.47 1.47 0 0 0 .92-.22.45.45 0 0 0 .09-.56 1.13 1.13 0 0 0-1.08-.45 1.64 1.64 0 0 0-1.15.42.5.5 0 0 0 .32.81m8.95 1.76c-.3-.09-.56-.22-.84-.33a1.43 1.43 0 0 1-.8-.5.47.47 0 0 1 .09-.56 1.14 1.14 0 0 1 1.17-.09 1.75 1.75 0 0 1 1 .77.5.5 0 0 1-.62.71m-2.3 2.98s.06.06.06.09c-.2.88-.27 1.91.47 2.35 0 0 0 .06 0 0-.96-.27-.85-1.64-.53-2.44" style="fill:#263238"/><path d="M253.66 141.15c1.44.16 1 3-.32 2.87s-.88-3.02.32-2.87" style="fill:#263238"/><path d="M254.2 141.39c.23.2.43.52.72.59s.65-.17.92-.42c-.08.54-.37 1.07-1 1.07s-.86-.55-.91-1.12c.07-.07.18-.2.27-.12m-6.98-.7s-.07 0-.08.07c-.09.89-.35 1.89-1.2 2.07 1 .05 1.33-1.28 1.28-2.14" style="fill:#263238"/><path d="M246.56 139.66c-1.41-.31-1.92 2.53-.62 2.81s1.8-2.56.62-2.81" style="fill:#263238"/><path d="M245.94 139.73c-.26.11-.53.35-.8.32s-.49-.39-.63-.72c-.12.54 0 1.14.46 1.34s.9-.22 1.12-.74c0-.07-.09-.24-.15-.2m5.32 8.91c-.24.19-.48.45-.81.45a2.4 2.4 0 0 1-.93-.32 1.21 1.21 0 0 0 1.08.6 1 1 0 0 0 .78-.72c-.02-.01-.09-.03-.12-.01m-3.18-3.78s-.4 1.29-.5 1.91c0 .06.14.11.35.15a3 3 0 0 0 3.05-.64c.06-.06 0-.13-.08-.1a4.42 4.42 0 0 1-2.82.33c0-.17.75-2.18.65-2.2a5.3 5.3 0 0 0-1.46.09c.74-2.71 1.92-5.28 2.62-8 0-.1-.12-.15-.16-.07a46.3 46.3 0 0 0-3.19 8.49c-.08.36 1.27.1 1.54.04" style="fill:#263238"/><path d="M266.41 145c-2.25 0-2.39-4.72-2.39-4.72s-4.54-.35-5.52-7a10.1 10.1 0 0 0 1.58 5.55s-7.93-1.48-10.77-8.44c0 0 1.07 3.52 2.24 4.83a9.4 9.4 0 0 1-4.71-4.06s-1.7 3.76-2.87 4.74c0 0 1.44-14 14.3-11.46 0 0 8.07 1.18 10.48 7.84S266.41 145 266.41 145" style="fill:#263238"/><path d="M263.43 145.66s3.44-3.64 5.13-2.35-1.32 6.84-3.6 7.33a2.23 2.23 0 0 1-2.77-1.62Z" style="fill:#f7a9a0"/><path d="M267.66 144.88v.06a5.6 5.6 0 0 0-3.39 3.05 1.23 1.23 0 0 1 1.87-.07.05.05 0 0 1-.06.08 1.35 1.35 0 0 0-1.55.25 6.3 6.3 0 0 0-.89 1.1c-.1.12-.33 0-.25-.13.26-1.97 2.16-4.45 4.27-4.34" style="fill:#263238"/><path d="M263.5 157.32c1.55-.4 4.25-.77 8.47 1 0 0-5.88 7.79-12.76 9.54-2.45.62-3.78-2.54-3.78-2.54s1.66-6.32 8.07-8" style="fill:#f7a9a0"/><path d="M371.08 347.94c-.45 2-28.72 48.42-30.92 49.51-.83.42-7.84-3.3-16.18-8-1.8-1-3.65-2.09-5.53-3.19l-27-11.4 18.81-31.12 26.53 12.24 5.36 3.46s18.79-12.95 21.32-13.89 8.05.45 7.61 2.39" style="fill:#dd6a57"/><path d="M371.08 347.94c-.45 2-28.72 48.42-30.92 49.51-1 .51-11.15-5.09-21.71-11.23l18.31-30.28 5.36 3.46s18.79-12.95 21.32-13.89 8.08.49 7.64 2.43" style="fill:#fff"/><path d="M371.08 347.94c-.45 2-28.72 48.42-30.92 49.51-.83.42-7.84-3.3-16.18-8l18.14-30s18.79-12.95 21.32-13.89 8.08.44 7.64 2.38" style="fill:#a6a6a6"/><path d="M368.81 347.48c-4.93 7.67-24.09 39.08-28.38 47 0 .07 0 .09.05 0 5-7.5 24-39.06 28.46-47 .06-.09-.02-.16-.13 0m-8.81 0a7.36 7.36 0 0 0-.93 5.82 7.1 7.1 0 0 0 3.1 4.27c.05 0 .1-.06.06-.09a8.47 8.47 0 0 1-2.13-9.94c-.01-.06-.1-.12-.1-.06m-15.26 9.37c-1.94 3.09-3 7.37-1.67 10.86.05.14.24.06.25-.06a50.5 50.5 0 0 1 1.83-10.65.23.23 0 0 0-.41-.15m2.4-1.85c-1.94 3.09-3 7.38-1.67 10.87 0 .13.25.05.25-.07a50.5 50.5 0 0 1 1.84-10.62.23.23 0 0 0-.42-.18m2.4-1.82c-1.94 3.09-3 7.37-1.67 10.86.06.14.25.06.26-.06a50.5 50.5 0 0 1 1.87-10.62.23.23 0 0 0-.46-.18m2.4-1.84c-1.94 3.09-3 7.38-1.66 10.87.05.13.24.05.25-.07a50.5 50.5 0 0 1 1.83-10.62.23.23 0 0 0-.42-.18M334.24 388c-2.12 3.5 3.32 6.8 5.44 3.29s-3.32-6.76-5.44-3.29" style="fill:#263238"/><path d="M338.47 348.42c-2.27.78-2.2 3.55-1.44 5.35a19.26 19.26 0 0 0 6.25 7.68.1.1 0 0 0 .15 0 .44.44 0 0 0 .57-.45c-.18-3.16 0-6.55-1.13-9.55-.65-1.76-2.26-3.77-4.4-3.03m4.3 7.85c.12 1.55.18 3.1.36 4.64-1.21-1.5-2.49-2.94-3.55-4.56a23 23 0 0 1-1.41-2.42c-.62-1.31-1.36-5.95 2.22-4.2 1.98.97 2.22 4.7 2.38 6.54" style="fill:#263238"/><path d="M339.73 369.9c2.06-2.46 3-5.73 4.2-8.65a.44.44 0 0 0-.42-.58.1.1 0 0 0-.13-.09 19.1 19.1 0 0 0-8.42 5.21c-1.32 1.45-2.29 4-.4 5.52s3.96.02 5.17-1.41m-2.92.8c-4 .48-1.74-3.66-.72-4.69a20 20 0 0 1 2.12-1.82 57 57 0 0 1 4.85-3.15c-.68 1.39-1.23 2.84-1.86 4.26-.75 1.7-2.2 5.13-4.39 5.4" style="fill:#263238"/><path d="M149.17 350.25s83.31 1.56 88.2 3.24c7.51 2.57 77.57 34.73 77.57 34.73l22.3-37.87s-61.48-28.82-84.18-34.35c-16.36-4-81.11 0-81.11 0Z" style="fill:#455a64"/><path d="M329.41 350.24c-3.34 5.35-15.25 24.28-19 31.85 0 .06.06.11.11.06 1.86-2.25 15.88-26.34 19-31.82a.09.09 0 1 0-.11-.09m-170.85-2.68c5.14-.09 10.29-.36 15.44-.52s10.3-.32 15.45-.42c10.29-.22 20.58-.26 30.87-.19a80 80 0 0 1 14.36 1.09 77.7 77.7 0 0 1 13.69 4.05c4.47 1.73 8.82 3.73 13.16 5.76l13.85 6.51 28.33 13.3c1.16.54 2.32 1.09 3.47 1.65.17.08 0 .38-.15.31-9.46-4.29-18.83-8.78-28.24-13.17l-14.05-6.56c-4.36-2-8.7-4.1-13.14-5.95a95 95 0 0 0-13.41-4.59 66.7 66.7 0 0 0-14.63-1.83c-10.15-.25-20.33-.17-30.48-.08s-20.49.24-30.74.63c-1.26.05-2.53.1-3.79.18-.1-.01-.09-.17.01-.17" style="fill:#263238"/><path d="M332.91 425.19c-1.08 1.7-44.43 36.84-46.87 37.14a.7.7 0 0 1-.37-.12c-1.55-.87-5.27-7-11-13.58-.37-.42-1.84-2.76-3.81-6-5.39-8.8-14.5-24.13-14.5-24.13l28.11-23.09 13.38 25.87 3.91 5s22-5.95 24.73-6 7.51 3.22 6.42 4.91" style="fill:#dd6a57"/><path d="M332.91 425.19c-1.08 1.7-44.43 36.84-46.87 37.14a.7.7 0 0 1-.37-.12c-1.55-.87-5.27-7-11-13.58-.37-.42-1.84-2.76-3.81-6l27-21.35 3.91 5s22-5.95 24.73-6 7.5 3.22 6.41 4.91" style="fill:#fff"/><path d="M332.91 425.2c-1.07 1.69-44.43 36.83-46.87 37.13-.92.11-6-5.33-11.34-13.7l27.09-22.26s22-6 24.73-6 7.48 3.13 6.39 4.83" style="fill:#a6a6a6"/><path d="M330.92 424c-7.2 5.6-35.72 28.85-42.41 34.92-.06.05 0 .09 0 .05 7.26-5.39 35.6-28.87 42.48-34.85.18-.12.09-.23-.07-.12m-8.35-2.94a7.3 7.3 0 0 0-2.81 5.18 7.07 7.07 0 0 0 1.5 5.06s.11 0 .08-.07a8.48 8.48 0 0 1 1.3-10.08.06.06 0 0 0-.07-.09m-17.47 3.77c-2.85 2.27-5.32 5.94-5.18 9.69 0 .15.21.14.26 0a50.4 50.4 0 0 1 5.26-9.4.23.23 0 0 0-.34-.29m2.9-.93c-2.86 2.27-5.32 5.94-5.19 9.69 0 .14.21.13.26 0a50.7 50.7 0 0 1 5.26-9.4.23.23 0 0 0-.33-.29m2.86-.9c-2.86 2.27-5.32 5.94-5.19 9.69 0 .14.21.13.26 0a50 50 0 0 1 5.26-9.4.23.23 0 0 0-.33-.29m2.87-1c-2.85 2.26-5.32 5.94-5.18 9.69 0 .14.21.13.26 0a50 50 0 0 1 5.26-9.41.23.23 0 0 0-.34-.28m-28.9 28.75c-3.17 2.6.87 7.52 4 4.91s-.83-7.52-4-4.91" style="fill:#263238"/><path d="M302 414.79c-2.4 0-3.26 2.62-3.13 4.57a19.2 19.2 0 0 0 3.33 9.33.1.1 0 0 0 .16 0 .44.44 0 0 0 .69-.18c.88-3 2.19-6.18 2.11-9.39-.05-1.88-.89-4.31-3.16-4.33m1.44 8.84c-.4 1.51-.86 3-1.2 4.5a55 55 0 0 1-1.83-5.49 20 20 0 0 1-.52-2.75c-.15-1.43.69-6.06 3.48-3.22 1.54 1.57.54 5.17.07 6.96" style="fill:#263238"/><path d="M296 435.47c2.77-1.63 4.73-4.41 6.84-6.76a.45.45 0 0 0-.21-.69.09.09 0 0 0-.08-.12 19.05 19.05 0 0 0-9.68 2.11c-1.72.93-3.5 3.05-2.22 5.07s3.77 1.34 5.35.39m-3-.22c-3.9-.86-.42-4 .88-4.66a20 20 0 0 1 2.61-1 58 58 0 0 1 5.62-1.36c-1.1 1.09-2.11 2.27-3.18 3.4-1.25 1.37-3.77 4.1-5.93 3.62" style="fill:#263238"/><path d="m298.66 415.92-29.47 28.24s-43.65-71.11-48.19-73.53c-4-2.15-52.37.35-59.54-2.26-11.72-4.28-17.92-15.07-20.67-23.53L172 316.05a34 34 0 0 1 5 13.89s49.94.53 62.3 7.34 59.36 78.64 59.36 78.64" style="fill:#455a64"/><path d="M292.79 411.44c-4.4 4-3.19 2.8-7.54 6.88-2.13 2-16.09 15.1-17.75 17.31 0 .05 0 .12.08.09 2.28-1.56 16-14.91 18.11-17 4.27-4.15 3-3 7.22-7.21.09-.03-.04-.15-.12-.07m-113.96-87.7a73 73 0 0 0-1.37 12.42.13.13 0 0 0 .25 0c.58-4.11 1.25-8.26 1.6-12.4a.24.24 0 0 0-.48-.02" style="fill:#263238"/><path d="M175.46 327.3a16 16 0 0 0 1.49 1.77 4.9 4.9 0 0 0 1.39 1.19c.11.05.2-.08.17-.18a6.4 6.4 0 0 0-1.11-1.57c-.45-.57-.89-1.15-1.36-1.7-.31-.37-.86.1-.58.49" style="fill:#263238"/><path d="M172.31 325.36c-.45-.46-.9-.93-1.34-1.4s-.88-1-1.37-1.48c-.08-.07 0-.18.12-.11.45.47 1 .87 1.46 1.3l1.44 1.31c.89.82 1.74 1.72 2.55 2.62a4.2 4.2 0 0 0 .47-1.84 3.4 3.4 0 0 0-.9-1.86c-.48-.59-1-1.16-1.43-1.76a14 14 0 0 0-1.63-1.91c-.07-.08 0-.19.13-.12a26.5 26.5 0 0 1 3.53 3.88 2.78 2.78 0 0 1 .79 1.79 5.5 5.5 0 0 1-.78 2.09c0 .1-.12.18-.2.11a37 37 0 0 1-2.84-2.62m6.25 4.64c3.2.14 6.42 0 9.63.05s6.26.13 9.39.27c6.32.29 12.64.85 18.91 1.67 3.1.4 6.2.88 9.28 1.44a65.4 65.4 0 0 1 9.18 2.15 24.5 24.5 0 0 1 8.14 4.53 63 63 0 0 1 6.66 6.91 167 167 0 0 1 13.43 17.27c.13.21-.2.43-.35.24-4.06-5-8.06-10.09-12.3-15s-8.23-9.86-14.18-12.3a48.4 48.4 0 0 0-8.95-2.44c-3.09-.61-6.21-1.13-9.33-1.57-6.16-.87-12.35-1.4-18.55-1.87-3.47-.26-7-.43-10.42-.67s-7-.55-10.55-.57c-.1.04-.09-.11.01-.11m-20.65 22.21c.05-.72.81-1.41 1.2-2a21 21 0 0 0 1.35-2.34 21 21 0 0 0 1-2.46 5.8 5.8 0 0 0 .43-2.6 13 13 0 0 0-1.81-4.37 20 20 0 0 0-3-4.14c-.07-.07 0-.17.12-.1.71.63 1.46 1.2 2.12 1.89a18 18 0 0 1 1.67 2.13 10.26 10.26 0 0 1 2.1 4.64c.18 1.8-.7 3.62-1.51 5.18a20 20 0 0 1-1.61 2.58c-.43.59-1 1.64-1.79 1.8a.21.21 0 0 1-.27-.21" style="fill:#263238"/><path d="M267.05 431.35Q258 417 248.61 403t-19.11-28a41 41 0 0 0-5-6.51c-2.15-2-4.85-2.64-7.7-3a141 141 0 0 0-15.78-.73c-5.28 0-10.56.22-15.84.38a138 138 0 0 1-15.77 0 24.6 24.6 0 0 1-13.67-5c-3.92-3.15-6.78-7.44-9.32-11.72l-2-3.4c0-.08.09-.16.14-.07 2.59 4.62 5.43 9.26 9.22 13a23.7 23.7 0 0 0 6.38 4.58 24.9 24.9 0 0 0 7.68 2.11c5.14.63 10.4.35 15.57.21s10.56-.36 15.84-.42a151 151 0 0 1 15.93.55 20.5 20.5 0 0 1 7 1.44c2.38 1.13 4 3.24 5.51 5.34 6.47 9.12 12.75 18.39 19 27.7S259 418.15 265 427.63l2.27 3.59c.12.15-.13.27-.22.13" style="fill:#263238"/><path d="M141.64 291.65c5.62 2.75 31.21 7.75 47.26 0 5.45-2.64 20-32.51 22.31-39.94 2.16-7.08-19.61-10.21-21.14-6.14-2.35 6.3-9.78 27.08-13 29-5.23 3.07-22.32 5.7-34.59 9.45-6.34 1.98-5.17 5.52-.84 7.63" style="fill:#dd6a57"/><path d="M142.5 293.26c7.07 3.66 25.25 6.05 25.25 6.05l-.37-5-1.22-16.49s-14 2.74-22.81 5.34a19.5 19.5 0 0 0-3 1.13c-5.2 2.48-3.95 5.82 2.15 8.97" style="fill:#16a34a"/><path d="M155 281.08a6.6 6.6 0 0 1 1.14 1.56 6.2 6.2 0 0 1 .71 1.8 7.6 7.6 0 0 1-1.85-3.36m5.38 5.92a7 7 0 0 1 1.56-1.15 6.4 6.4 0 0 1 1.8-.7 7 7 0 0 1-1.56 1.14 6.8 6.8 0 0 1-1.8.71m-22.16 0a7 7 0 0 1 1.56-1.14 6.8 6.8 0 0 1 1.8-.71 6.6 6.6 0 0 1-1.56 1.14 6.4 6.4 0 0 1-1.8.71m13.03 1.68a7.46 7.46 0 0 1-1.06 3.68 6.8 6.8 0 0 1 .29-1.91 6.4 6.4 0 0 1 .77-1.77m10.87 4.43a6.7 6.7 0 0 1-.29 1.91 6.4 6.4 0 0 1-.77 1.78 6.7 6.7 0 0 1 .29-1.91 7.2 7.2 0 0 1 .77-1.78" style="fill:#fff"/><path d="M142.5 293.26c7.07 3.66 25.25 6.05 25.25 6.05l-.37-5c-7.93-3-20.07-7.45-27.06-10-5.17 2.46-3.92 5.8 2.18 8.95" style="fill:#263238"/><path d="M164 297.91c-.33-3-1.26-15.19-1.28-17.85 0-.19.11-.23.14 0a164 164 0 0 1 1.25 17.87.06.06 0 1 1-.11-.02" style="fill:#263238"/><path d="M211.18 251.79c.77-2.2 3.42-12.61 3.51-15.67s-.3-11.88-2.63-12.18-2.43 2.28-2.43 2.28-.76-3.7-3.14-3.79-2.39 3.94-2.39 3.94-1-3.74-3.43-3.67-1.71 4.14-1.71 4.14-.8-3.47-2.74-2.58c-2.32 1.07-.13 7.3-.48 10.67-.08.76-2.72 15.39-2.72 15.39Z" style="fill:#dd6a57"/><path d="M198.91 226.49c1.6 4.58 1.51 6.87.44 11.52 0 .09.11.15.14.05 1.46-4.46 2-7.31-.37-11.66-.12-.21-.29-.13-.21.09M204 226c1.25 4.9 1.17 7.38.4 12.34 0 .07.11.1.13 0 1.16-4.81 1.62-7.66-.28-12.4-.11-.17-.34-.16-.25.06m5.58.47c.87 4.84.9 7.56-.46 12.28a.09.09 0 0 0 .17.06 16.33 16.33 0 0 0 .44-12.35c-.1-.29-.21-.29-.15.01" style="fill:#263238"/><path d="M190 252.83a59 59 0 0 1-1.19-8.69c0-2.74 3.92-12.88 6.16-12.17 2.89.93 1.8 7.23.86 10.24 0 0 6.69 2.13 6.89 6.83S190 252.83 190 252.83" style="fill:#dd6a57"/><path d="M195.69 232.49c2 2.74.55 6.62-.15 9.61a.29.29 0 0 0 .3.36c2.74 1.08 6.3 3.4 7 6.43a.07.07 0 0 0 .14 0c-.33-3.35-3.64-5.92-6.72-6.91.76-3.06 2.08-7-.56-9.49 0-.04-.02-.02-.01 0" style="fill:#263238"/><path d="M181.14 316.93c-.13 2.44 0 5.74-8.54 15.39-.53.6-1.1 1.18-1.7 1.75-9 8.44-28.2 13.7-29.45 13.89 0 0-16.87-31.57-13-57.17.47-3.16 4.92-6.26 8.75-7.18 1.36-.33 8.88 1.61 13.71 5.36s30.37 25.52 30.23 27.96" style="fill:#16a34a"/><path d="M142.56 297.63a6.8 6.8 0 0 1 1.66 1 6.6 6.6 0 0 1 1.35 1.38 6.8 6.8 0 0 1-1.66-1 6.6 6.6 0 0 1-1.35-1.38m16.54 17.89a7.5 7.5 0 0 1 3 2.37 6.8 6.8 0 0 1-1.66-1 6.6 6.6 0 0 1-1.34-1.37m-20.57 4.14a6.4 6.4 0 0 1 1.66 1 6.6 6.6 0 0 1 1.36 1.38 6.4 6.4 0 0 1-1.66-1 7 7 0 0 1-1.36-1.38M165 303.27a6.6 6.6 0 0 1 1.67 1 6.8 6.8 0 0 1 1.35 1.38 6.4 6.4 0 0 1-1.66-1 7 7 0 0 1-1.36-1.38M141 310a6.4 6.4 0 0 1 1-1.66 6.6 6.6 0 0 1 1.38-1.36 6.4 6.4 0 0 1-1 1.66A7 7 0 0 1 141 310m5 21.21a7.5 7.5 0 0 1 2.37-3 6.8 6.8 0 0 1-1 1.66 6.6 6.6 0 0 1-1.37 1.34m23.42-7.9a6.8 6.8 0 0 1 1-1.66 6.6 6.6 0 0 1 1.38-1.35 7.5 7.5 0 0 1-2.37 3Zm-16.91 17.32a6.6 6.6 0 0 1 1-1.67 6.8 6.8 0 0 1 1.38-1.35 6.4 6.4 0 0 1-1 1.66 7 7 0 0 1-1.38 1.36m-19.88-49.88a7.5 7.5 0 0 1 2.37-3 6.8 6.8 0 0 1-1 1.66 6.6 6.6 0 0 1-1.37 1.34m-1.13 7.06a7 7 0 0 1 .48 1.87 6.7 6.7 0 0 1 0 1.94 7 7 0 0 1-.48-1.88 7.4 7.4 0 0 1 0-1.93m3.43 28.62a7 7 0 0 1 .48 1.87 6.6 6.6 0 0 1 0 1.93 7 7 0 0 1-.48-1.87 7.3 7.3 0 0 1 0-1.93m21.52-23.69a7 7 0 0 1 .48 1.87 7.3 7.3 0 0 1 0 1.93 6.2 6.2 0 0 1-.48-1.87 6.6 6.6 0 0 1 0-1.93m.82 23.94a7 7 0 0 1 .48 1.87 6.6 6.6 0 0 1 0 1.93 7 7 0 0 1-.48-1.87 7.3 7.3 0 0 1 0-1.93m-11.98-39.43a7.54 7.54 0 0 1 .45 3.8 7.54 7.54 0 0 1-.45-3.8m12.57 7.81a7 7 0 0 1-1.88.48 6.6 6.6 0 0 1-1.93 0 7 7 0 0 1 1.87-.48 7.4 7.4 0 0 1 1.94 0m-13.94 44.17a7 7 0 0 1-1.87.47 6.7 6.7 0 0 1-1.94 0 6.7 6.7 0 0 1 1.88-.47 6.6 6.6 0 0 1 1.93 0M174.38 311a7 7 0 0 1-1.88.48 7 7 0 0 1-1.93 0 7 7 0 0 1 1.87-.48 6.7 6.7 0 0 1 1.94 0m-40.76 1.6a7 7 0 0 1-1.87.48 6.7 6.7 0 0 1-1.94 0 7 7 0 0 1 1.88-.48 7.4 7.4 0 0 1 1.93 0m36.88 18.8a7.54 7.54 0 0 1-3.8.45 7.54 7.54 0 0 1 3.8-.45m-19.43-15.24a7 7 0 0 1-1.87.48 6.6 6.6 0 0 1-1.93 0 7 7 0 0 1 1.87-.48 7.3 7.3 0 0 1 1.93 0" style="fill:#fff"/><path d="M128.54 291.55c-7.92 5-24.35 33.18-24.37 41.82 0 12.87 6.48 29.86 9.38 35.84 1.26 2.61 22-4.87 21.11-7.83-2-6.33-10.18-24.16-10.24-26.48s4.24-20.68 7.68-30.22c4.61-12.8.45-15.68-3.56-13.13" style="fill:#dd6a57"/><path d="M113.52 369.26c3.6 8.84 17 18.48 19.19 19.33 1.86.73 2.83 1.09 2.83 1.09 3.32 1.38 5.24.45 5.24.45s3.37 2.72 5.35.95c2.23-2-2.94-5.4-4.63-9-3.87-8.31-7.05-21.21-7.92-23.72Z" style="fill:#dd6a57"/><path d="M131.32 376.19a41.3 41.3 0 0 0 9.46 13.81c.06.06 0 .16-.1.1a31.3 31.3 0 0 1-9.57-13.85c-.04-.09.15-.18.21-.06m-5.32 1.6a43.1 43.1 0 0 0 9.63 11.83s0 .05 0 0a28.1 28.1 0 0 1-9.83-11.73c-.13-.11.08-.25.2-.1" style="fill:#263238"/><path d="M137.47 371.74c-.07-1.28.6-1.33 2.11.38s6.06 9.75 8.73 7.93-3.9-13.08-6.63-15.74a65 65 0 0 0-8.26-6.11c.84 2.45 2.47 8.71 4.05 13.54" style="fill:#dd6a57"/><path d="M134.1 298.74c2.84-12.56-3-13.25-10.51-4.51a183 183 0 0 0-14 19.46l19.41 7.86s3.28-14.78 5.1-22.81" style="fill:#16a34a"/><path d="M112.18 311.81c2.83.95 14.3 5.28 16.72 6.38.17.07.17.2 0 .14a166 166 0 0 1-16.74-6.41.06.06 0 0 1 .02-.11" style="fill:#263238"/><path d="M120.38 304.09a7.35 7.35 0 0 1 3 2.36 7 7 0 0 1-1.66-1 7.4 7.4 0 0 1-1.34-1.36m3.94-8.79a7 7 0 0 1 1-1.66 7.4 7.4 0 0 1 1.38-1.36 6.6 6.6 0 0 1-1 1.67 6.8 6.8 0 0 1-1.38 1.35m8.31-4.55a7.5 7.5 0 0 1 2.37-3 6.8 6.8 0 0 1-1 1.66 6.6 6.6 0 0 1-1.37 1.34m-1.13 7.06a7 7 0 0 1 .48 1.87 6.7 6.7 0 0 1 0 1.94 7 7 0 0 1-.48-1.88 7.4 7.4 0 0 1 0-1.93M116 311.24a7 7 0 0 1 .48 1.88 6.6 6.6 0 0 1 0 1.93 7 7 0 0 1-.48-1.87 7.4 7.4 0 0 1 0-1.94m17.62 1.36a7 7 0 0 1-1.87.48 6.7 6.7 0 0 1-1.94 0 7 7 0 0 1 1.88-.48 7.4 7.4 0 0 1 1.93 0" style="fill:#fff"/><path d="M133.42 302.71c-.36 1.66-.66 3.33-1 5 .34-.65.7-1.28 1.08-1.91-.26.52-.5 1-.77 1.56l-.39.74-.08.16c-.24 1.3-.49 2.6-.78 3.89-.33 1.54-.71 3.08-1.08 4.61s-1 3.29-1.29 4.89a11 11 0 0 1-1.89-.75c-.18-.06-.14-.25 0-.16s1.7.55 1.73.55c.38-1.54.58-3.12.91-4.67s.65-3.1 1-4.63c.74-3.13 1.64-6.21 2.4-9.33.1-.01.17.01.16.05" style="fill:#263238"/><path d="M142 292.24c-2.3 2.09-9.1.56-12.72-1.73-.24-.16-1.21-2.73-2.53-5.79-.81-1.86-1.76-3.9-2.76-5.71-.2-.37 1.43-.38 1.43-.38l2.65-.73 8.76-2.4a33 33 0 0 0 2.74 7.54 4.6 4.6 0 0 0 .49.7 1 1 0 0 1 .08.11c1.03 1.28 4.11 6.36 1.86 8.39" style="fill:#dd6a57"/><path d="M140.08 283.74a1 1 0 0 1 .08.11 8 8 0 0 1-1.13.71c-7.71 4-14-5.13-14-5.13l3.08-1.53 8.76-2.4a33 33 0 0 0 2.74 7.54 4.6 4.6 0 0 0 .47.7" style="fill:#263238"/><path d="M117.32 261.5c-.41 4.78 4.73 17.23 8.54 19.43 5.52 3.2 13.18 2 15.55-4.34 2.29-6.13-4.7-22.23-8.82-24.1-6.08-2.74-14.67 1.95-15.27 9.01" style="fill:#dd6a57"/><path d="M131.49 267v.1c.4.82.71 1.82.09 2.43v.05c.85-.58.42-1.9-.09-2.58" style="fill:#263238"/><path d="M130.37 266.44c-1.38.49-.29 3.21 1 2.75s.15-3.19-1-2.75m5.96-1.64s.08 0 .1.05c.31.85.81 1.77 1.68 1.75-.97.29-1.62-.94-1.78-1.8" style="fill:#263238"/><path d="M136.73 263.62c1.32-.65 2.51 2 1.29 2.62s-2.39-2.08-1.29-2.62m-7.93 2.01c.33-.25.59-.52.9-.8a2 2 0 0 0 .77-1 .63.63 0 0 0-.37-.66 1.52 1.52 0 0 0-1.5.43 2.2 2.2 0 0 0-.84 1.39.66.66 0 0 0 1.04.64m8.43-3.8a12 12 0 0 1-1.23.17 1.94 1.94 0 0 1-1.24-.08.6.6 0 0 1-.25-.71 1.52 1.52 0 0 1 1.31-.84 2.3 2.3 0 0 1 1.6.29.66.66 0 0 1-.19 1.17m-3.71 12.98a1.34 1.34 0 0 0 .91.21 2.3 2.3 0 0 0 .82-.58h.05a1.24 1.24 0 0 1-.88.89 1 1 0 0 1-1-.48s.06-.06.1-.04" style="fill:#263238"/><path d="M133.39 271.93a3.05 3.05 0 0 0 2.43.51 4.4 4.4 0 0 0 1.05-.36 1 1 0 0 0 .19-.11l.17-.1a.21.21 0 0 0 .09-.25.2.2 0 0 0 0-.08v-.07c-.25-.66-.7-1.62-.7-1.62.28 0 1.71.08 1.55-.25a46.4 46.4 0 0 0-4.59-8.23.09.09 0 0 0-.15.08c1.14 2.68 2.74 5.14 3.93 7.82a5.6 5.6 0 0 0-1.52.13c-.08.06.92 1.84 1 2.14a4.35 4.35 0 0 1-3.34.27c-.14-.01-.18.08-.11.12" style="fill:#263238"/><path d="M136.36 271.9a3.7 3.7 0 0 1-.94 1.6 1.65 1.65 0 0 1-.91.43c-.74.09-1-.52-1.1-1.09a4 4 0 0 1 0-.93 4.8 4.8 0 0 0 2.95-.01" style="fill:#263238"/><path d="M135.42 273.5a1.65 1.65 0 0 1-.91.43c-.74.09-1-.52-1.1-1.09a1.71 1.71 0 0 1 2.01.66" style="fill:#ff99ba"/><path d="M121.15 272.54c2.24-1-.06-6.51-.06-6.51s3.26-1.93 3.19-7.36c0 0 5.55 1.15 9.08-.94 5.51-3.27 2.5-10.9-.3-11.65-4-1.05-8.35 4.26-8.35 4.26s-9.34.79-9.73 7.45a4.63 4.63 0 0 0-2.43 5.83c1.29 4.26 6.93 9.66 8.6 8.92" style="fill:#263238"/><path d="M120.51 267a8.37 8.37 0 0 0 3.53-4.06 6.24 6.24 0 0 0-.58-5.68.08.08 0 0 1 .14-.09 7.14 7.14 0 0 1 1.15 6 5.8 5.8 0 0 1-4.16 4c-.1.01-.17-.12-.08-.17m-9.16-5.71c.61-1.91 2.31-2.8 4.09-3.4.1 0 .15.14 0 .16a5.24 5.24 0 0 0-3.5 4c-.37 1.72.48 3.39 1.41 4.8a13.16 13.16 0 0 0 7.63 5.49s0 .1 0 .09a13.15 13.15 0 0 1-8.49-6c-.87-1.43-1.71-3.38-1.14-5.14m13.23-10.58a6.17 6.17 0 0 1 2.32-3.7 7.4 7.4 0 0 1 5.1-1.33 4.17 4.17 0 0 1 3.28 2.57 7.35 7.35 0 0 1 .08 4.94h-.07a7.3 7.3 0 0 0-.27-4.41 3.85 3.85 0 0 0-3.3-2.4c-2.82-.17-6.31 1.32-7 4.38a.08.08 0 0 1-.14-.05" style="fill:#263238"/><path d="M122.35 271.47s-3.9-3.49-5.55-2 2 7 4.39 7.32a2.33 2.33 0 0 0 2.74-1.93Z" style="fill:#dd6a57"/><path d="M117.88 271v.06a5.8 5.8 0 0 1 3.79 2.88 1.27 1.27 0 0 0-1.94.09s0 .1.06.08a1.42 1.42 0 0 1 1.64.12 6.5 6.5 0 0 1 1 1.07c.11.12.34 0 .25-.16-.43-2-2.62-4.42-4.8-4.14m50.39-168.73-1.52-3.19a20 20 0 0 0 4.75-4 23 23 0 0 1-5.23 3l-1.33-2.8c2.05-1.28 5.66-3.81 7.63-6.84-.26.22-4.91 4.16-8.33 5.38L152.5 69.16c4.68-3.56 10.74-5.41 9.3-5.26a39 39 0 0 0-10.36 3l-1.31-2.74a19 19 0 0 1 4-1.65c1.9-.46-2.19-.25-4.51.64l-.83-1.75s7.24-3.88 13.81-3.68c8.74.25 10.34-3.09 18.74-5.28 9.55-2.49 25.62 4 20 20.74a20.37 20.37 0 0 1-10.71 12.86c-6.23 3-10.21 3.19-12.41 6.87a23.17 23.17 0 0 1-9.95 9.36" style="fill:#263238"/><path d="M149.33 59.82a22.1 22.1 0 0 1 8.28-3 28.6 28.6 0 0 1 4.44-.37c.73 0 1.49.05 2.21.07a15 15 0 0 0 2.14-.07 40 40 0 0 0 8.41-2.19c1.4-.47 2.8-.92 4.24-1.27a19.7 19.7 0 0 1 4.38-.6 37.5 37.5 0 0 0-8.4 2.49c-1.37.53-2.75 1-4.17 1.48a24 24 0 0 1-4.37.93 15.6 15.6 0 0 1-2.27.06c-.74 0-1.45-.08-2.18-.09a30 30 0 0 0-4.34.22 28 28 0 0 0-4.27.84c-.71.19-1.4.42-2.09.67s-1.34.5-2.01.83m41.36 26.26c-1 .56-2.13 1-3.18 1.51s-2.1 1-3.1 1.61a22 22 0 0 0-2.82 2c-.22.18-.42.38-.64.57l-.16.15-.12.13a4 4 0 0 0-.25.32c-.33.46-.64 1-1 1.45-.65 1-1.33 2-2.07 2.89a23 23 0 0 1-2.45 2.6 19 19 0 0 1-2.85 2.14 17 17 0 0 1-3.21 1.51 22.3 22.3 0 0 0 5.6-4.13 33 33 0 0 0 4.27-5.48c.32-.48.64-1 1-1.47a3.5 3.5 0 0 1 .3-.37 1.6 1.6 0 0 1 .18-.19l.17-.15c.22-.2.44-.41.68-.59a18.4 18.4 0 0 1 3-1.94 25 25 0 0 1 3.26-1.42c1.16-.41 2.28-.76 3.39-1.14" style="fill:#263238"/><path d="M170.41 91.68c8.6 15.6 17.08 27 22.77 28.52 4.58 1.25 10.45 1.26 16.3.7a142 142 0 0 0 18.5-3.23c1.88-.44 3.43-.84 4.54-1.12 2.73-.7 1.36-19.78-1.24-21.32-.6-.35-2.48-.16-5.06.33-8.66 1.67-25.4 7.18-26.68 6.57s-8.62-6.33-18.77-13.19c-7.02-4.74-15.72-6.94-10.36 2.74" style="fill:#ad6359"/><path d="M228 117.67a74 74 0 0 0 9.62.37c2.53-.18 9.79-.88 9.87-3.68.06-1.91-4.26-2-7.31-2.13-1.61-.07-3.86-.9-3.78-2 .14-1.83 4.31-1.57 7.18-1.07 5.53 1 13.37 3.52 15.31.18.73-1.26-1.08-2.41-3.45-3.31 3.58.75 7.23 1.11 8.09-.26a1.63 1.63 0 0 0-.42-2.2 2.16 2.16 0 0 0 2.11-1.18c.59-1.33-.41-2.62-2-3.74a1.18 1.18 0 0 0 .65-.88c.88-3.78-12.34-8.86-16.11-8.41a82 82 0 0 0-21.58 6.18c-2.84 4.72 1.82 22.13 1.82 22.13" style="fill:#ad6359"/><path d="M239.47 102.68a17.7 17.7 0 0 1 7.76.12c3 .76 5.68 2.3 8.55 3.34.08 0 0 .15 0 .12-1.39-.58-2.84-1-4.24-1.54s-2.74-1.06-4.15-1.47a17.6 17.6 0 0 0-7.87-.53s-.07-.04-.05-.04m.31-5.02a43.5 43.5 0 0 1 8.91-.16c3.23.38 6.19 1.86 9.08 3.27q2.6 1.26 5.15 2.65c.07 0 0 .15-.05.11q-4.42-2.19-9-4.13a23.4 23.4 0 0 0-8.87-1.89c-1.74 0-3.49.09-5.23.2-.01 0-.02-.05.01-.05m1.48-4.83a22.4 22.4 0 0 1 8-.25 39.7 39.7 0 0 1 9.25 3.48c1.59.8 3.15 1.65 4.7 2.52.06 0 0 .15-.07.12a91 91 0 0 0-10.81-5 18.3 18.3 0 0 0-5.5-1.25 32 32 0 0 0-5.61.35s.02.03.04.03" style="fill:#263238"/><path d="m194.2 97.59-17.55 6.08s-5.84-8.73-7.27-12.54c-2.18-5.79-2.19-8.89 5.71-5.84 8.3 3.21 19.11 12.3 19.11 12.3" style="fill:#16a34a"/><path d="M179.66 99.58c1.3-.36 2.61-.72 3.9-1.12s2.51-.78 3.75-1.21c.66-.23 1.32-.48 2-.73.24-.1 1.37-.56 1.49-.63-2.56.74-5.13 1.42-7.68 2.2-1.25.38-2.5.78-3.75 1.18a30 30 0 0 0-3.6 1.24c-.07 0 0 .13.05.12a33 33 0 0 0 3.84-1.05" style="fill:#263238"/><path d="m183.43 101.32-6.78 2.35s-5.84-8.73-7.27-12.54c-2.18-5.79-2.19-8.89 5.71-5.84.83.32 1.69.7 2.56 1.13 1.77 4.34 4.03 10.26 5.78 14.9" style="fill:#263238"/><path d="M48.44 278c-.85-1.88-6.42-57.58-5.29-59.83.42-.86 8.49-2.15 18.28-3.42 2.11-.28 33.68-9.25 33.68-9.25l3.83 37.25-33.82 7.89s-7.4 22.28-8.91 24.62-6.93 4.62-7.77 2.74" style="fill:#ad6359"/><path d="M59.74 266.3a81 81 0 0 1-3.53 9c-1.51 2.34-6.93 4.62-7.77 2.74s-6.44-57.62-5.29-59.87c.34-.7 5.71-1.68 13-2.7-.32 12.85-1.06 53.07 2.27 52.28.27-.07.75-.62 1.32-1.45" style="fill:#263238"/><path d="m70.44 211.58 7.17 38.55s57-13.66 71.63-29.29c12.44-13.27 11.83-62.15 15-91.53l-21.8-8.76c-7.23 18.84-12.86 64.36-17.65 71.72-3.18 4.91-54.35 19.31-54.35 19.31" style="fill:#37474f"/><path d="M83.8 245.11c-1.1-6.4-.7-4.58-1.87-11-.58-3.12-3.43-18.84-4.45-21.67a.07.07 0 0 0-.13 0c.11 3 3.3 18.65 3.93 21.77 1.29 6.36 1 4.52 2.35 10.87a.09.09 0 1 0 .17.03m57.83-119.61a311 311 0 0 0-10.06 47.61c-.5 3.93-.88 7.86-1.27 11.81-.32 3.33-.82 6.87-3.06 9.52-2.48 3-6.34 4.28-9.81 5.67-3.83 1.54-7.66 3.06-11.52 4.51-4.16 1.57-8.35 3-12.61 4.33q-3.27 1-6.59 1.8c-1.1.27-2.21.53-3.32.77l-5 1c-.19 0-.5 0 0-.11 1-.22 5.4-1.15 6.44-1.4C89 210 93 208.8 97 207.45s8.1-2.86 12.1-4.43 8-3 11.82-4.77a17 17 0 0 0 5.48-3.52 11.54 11.54 0 0 0 2.81-5.58c.89-3.89.94-8 1.4-12q1.44-12.31 3.92-24.48a272 272 0 0 1 7-27.23.06.06 0 0 1 .1.06" style="fill:#263238"/><path d="M61.34 330.05C59.57 329 23.37 286.3 23 283.8c-.13-.95 5.77-6.59 13.11-13.19 1.58-1.43 3.23-2.89 4.9-4.37 10.88-9.6 22.65-19.54 22.65-19.54L88 275.18l-23.34 18.76-5.12 4.12s6.55 22.54 6.65 25.32-3.09 7.74-4.85 6.67" style="fill:#ad6359"/><path d="M66.19 323.38c.08 2.78-3.09 7.74-4.85 6.67S23.37 286.3 23 283.8c-.11-.8 4.07-4.94 9.79-10.18 5.4 9 28.42 46.87 30.92 44.29.32-.34.41-1.76.37-3.56a77 77 0 0 1 2.11 9.03" style="fill:#263238"/><path d="m70.66 293.57-27.31-30.92s48.73-50.67 54-59.16c4.31-7 14.76-54.93 14.23-57.62-2.66-13.55 0-23.53 13-33.94l29.17 14.28s-8.78 13.45-8.81 14.15c-.64 17.94-1.84 67-13.14 83.63-25.57 37.51-61.14 69.58-61.14 69.58" style="fill:#37474f"/><path d="M75.85 286.28c-5.36-6.63-23.41-26.12-25.63-27.9 0 0-.13 0-.1.08 1.53 2.41 10.88 12.81 25.6 27.94a.09.09 0 0 0 .13-.12m78.35-159.16c-2.3 3.51-5.58 9.86-7.76 8.8s2.39-8.53 3.3-10.33c.82-1.63.15-1.71-.94.14-3 5-5.3 9.61-2.46 10.89s7.14-6.66 8.06-8.51c.48-.95.53-2.11-.2-.99" style="fill:#263238"/><path d="M146.45 136.24a18 18 0 0 0-2 3.91c0 .13.44.27.52.21.55-.4 1.72-3 2.16-3.66a.39.39 0 0 0-.68-.46" style="fill:#263238"/><path d="M144.75 140.21c-.6 7-.9 14-1.33 20.95s-.84 13.74-1.44 20.6c-1.1 12.71-3 25.57-8.3 37.31a61 61 0 0 1-4.57 8.67c-1.63 2.49-3.87 5.5-5.71 7.93-.06.08.09 0 .16-.11a63 63 0 0 0 5.34-6.29 59.6 59.6 0 0 0 4.67-7.64 74 74 0 0 0 6.1-16.7c3.3-13.36 3.8-27.27 4.59-41 .46-7.92 1-15.86 1.15-23.79 0-.38-.62-.34-.66.07m-47.24 63.06c-1.6 1.76-3.11 3.61-4.69 5.39s-3.08 3.66-4.62 5.49c-3.07 3.66-6.2 7.25-9.37 10.85-1.79 2.08-3.61 4.15-5.55 6.08a.08.08 0 0 0 .11.11c3.37-3.45 6.94-6.7 10.19-10.27S90 213.75 93 210c.8-1 1.52-2.08 2.26-3.13s1.66-2.27 2.42-3.45c.03-.13-.1-.23-.17-.15M139.58 122a14.6 14.6 0 0 1-7.55 4.73 12 12 0 0 1-4.51.22c-1.59-.23-3.71-.67-4.79-2-.06-.08-.18 0-.11.11a11.2 11.2 0 0 0 2.26 1.74 9.7 9.7 0 0 0 2.27.85 12 12 0 0 0 4.92.07 10.78 10.78 0 0 0 7.81-5.54c.12-.1-.15-.31-.3-.18" style="fill:#263238"/><path d="M123.93 116.21A28.31 28.31 0 0 0 115 140c.26 2.5 1.11 4.85 1.45 7.33.41 2.87-.44 5.7-1.21 8.44-1.51 5.43-11 43.11-13.56 48s-6.17 8.79-9.59 12.88q-5.46 6.53-11 13-11.2 12.91-22.79 25.52c-1 1-1.9 2.1-2.9 3.12-.07.07 0 .18.12.11 3.84-4.18 7.83-8.22 11.69-12.39s7.72-8.45 11.5-12.75 7.46-8.57 11.12-12.91c3.47-4.12 7.13-8.19 10.18-12.65a32.2 32.2 0 0 0 3.57-6.71c1-2.53 12.33-45.35 13-48.07a17.2 17.2 0 0 0 .53-4.1 16 16 0 0 0-.57-3.71 33.2 33.2 0 0 1-1.15-7.22 28.2 28.2 0 0 1 .65-6.78 29.1 29.1 0 0 1 5.91-12.19 33 33 0 0 1 2.26-2.45c0-.2-.21-.36-.28-.26" style="fill:#263238"/><path d="M123 112.16c1 1.47 10.9 11.58 14.92 14.18 12.21 7.93 25.79 11.21 27.65 10l6-16.41s5.67-2.33 7.7-7.2c2.21-5.31.13-23.09-.23-24.23-1.46-4.56-6.93-9.06-13.21-7.61-17.08 3.95-42.83 31.27-42.83 31.27" style="fill:#16a34a"/><path d="M164.25 78.64c-6.59-2.1-38.52-10.6-48.66-6.51-9.85 4-21.07 11.3-25.79 14.94-3.6 2.79 0 23.33 4 22.09 7.19-2.28 29.1-17.48 31-19s27-1.2 38.48-2.36c10.28-1.01 12.06-5.61.97-9.16" style="fill:#ad6359"/><path d="M101.63 105.2s-6 6.22-10.06 10.11c-2.28 2.16-6.53 5.53-8.93 6.36-3.6 1.23-19.44 4.1-20.22.27-.7-3.46 13.22-4.2 13.22-4.2s-14 2-14.06-2.34 15.75-3.06 15.75-3.06-14.41 1.71-13.78-2.76c.47-3.38 14.87-3 14.87-3s-12.42 1.34-12.06-2.15c.37-3.87 13.69-4.39 13.69-4.39 2.35-8.75 7-12 10.65-13.84.87-.45 10.93 19 10.93 19" style="fill:#ad6359"/><path d="M80.52 117.37c-1.64.29-3.29.6-4.94.74s-3.32.24-5 .23a27.8 27.8 0 0 1-6.45-.65 60.3 60.3 0 0 0 11.4 0c1.65-.15 3.31-.21 5-.35.03-.04.03.02-.01.03m-.42-5.98c-2.1.28-4.18.64-6.3.83s-4.11.18-6.23.23c-.16 0-.11-.09.06-.1 2.1-.13 4-.41 6.15-.56s4.22-.23 6.32-.45c.03-.01.03.04 0 .05m.56-5.2a48 48 0 0 1-9.72.53c-.16 0-.08-.11.08-.11 3.24-.12 5.78-.19 9.62-.53.06-.01.09.1.02.11" style="fill:#263238"/><path d="m148.31 72.57 6.16 17.53s10.46-.86 14.34-2.11c5.88-1.9 8.32-3.81 1-8.1-7.66-4.5-21.5-7.32-21.5-7.32" style="fill:#16a34a"/><path d="M164.83 88.84c-1.75.15-3.48.43-5.22.6-.88.09-4.2.54-5 .66 0 0-.57-1.36-.73-1.64 0-.08-.13 0-.11 0 .09.31.53 2 .57 2s1.81-.11 2.64-.16a27 27 0 0 0 2.68-.27L160 90c.67.07 1.32.19 2 .2a10.6 10.6 0 0 0 2-.21c.05 0 0-.07 0-.07-.69 0-1.37-.09-2.06-.1H161a26 26 0 0 0 3.81-.94s.08-.05.02-.04" style="fill:#263238"/><path d="M156.53 85.27c-.44-1.28-.88-2.56-1.35-3.82s-.93-2.46-1.44-3.67c-.27-.65-.55-1.29-.85-1.93-.11-.23-.63-1.33-.72-1.45.9 2.5 1.74 5 2.66 7.53.46 1.23.94 2.45 1.42 3.67a30 30 0 0 0 1.44 3.52.07.07 0 0 0 .12 0 32 32 0 0 0-1.28-3.85" style="fill:#263238"/><path d="M171.46 82.68c-.34.82-.16 7.76 3.17 9.86 1.09.69 5.08-5.08 5.08-5.08l.39-.36 5.48-5-4.86-11s-8.79 10.44-9.26 11.58" style="fill:#ad6359"/><path d="m185.58 82.08-5.48 5a18.67 18.67 0 0 1-2.22-12.63c1.58-1.93 2.84-3.43 2.84-3.43Z" style="fill:#263238"/><path d="M200.87 75.19c-4 12.41-11.9 11.41-14.58 10.54-2.43-.79-10.6-3.79-7.88-16.55s9.76-14.81 15.41-13.3 11.07 6.9 7.05 19.31" style="fill:#ad6359"/><path d="M199.19 72.56c-.27-.15-.49-.33-.74-.5s-.54-.32-.67-.66a.47.47 0 0 1 .21-.52 1.17 1.17 0 0 1 1.16.17 1.74 1.74 0 0 1 .76 1 .5.5 0 0 1-.72.51m-8.47-3.12a6.5 6.5 0 0 0 .88.16 1.44 1.44 0 0 0 .94 0 .47.47 0 0 0 .21-.53 1.14 1.14 0 0 0-.95-.67 1.7 1.7 0 0 0-1.21.16.49.49 0 0 0 .13.88m.38 3.71h-.09c-.29.84-.76 1.75-1.61 1.74.95.32 1.6-.89 1.7-1.74" style="fill:#263238"/><path d="M190.68 72c-1.3-.61-2.41 2-1.21 2.6s2.3-2.09 1.21-2.6" style="fill:#263238"/><path d="M190.11 71.92c-.3 0-.64.22-.93.13s-.46-.48-.56-.84h-.05c-.22.51-.25 1.11.26 1.41a1.06 1.06 0 0 0 1.35-.47c.07-.08.04-.25-.07-.23m6.27 3.01s.05.07 0 .1c-.38.81-.68 1.79-.06 2.38 0 0 0 .06 0 0-.83-.47-.42-1.77.06-2.48" style="fill:#263238"/><path d="M197.48 74.4c1.35.46.32 3.14-.93 2.71s-.21-3.11.93-2.71" style="fill:#263238"/><path d="M198 74.79c.16.22.27.56.51.67s.62-.07.91-.28c-.18.51-.56 1-1.09.89s-.64-.65-.57-1.2c.02-.06.15-.17.24-.08m-9.14 4.81c.1.27.17.62.45.79a2.5 2.5 0 0 0 .95.21s.05 0 0 .05a1.18 1.18 0 0 1-1.23-.05.94.94 0 0 1-.29-1s.1-.05.12 0m4.65-1.6s-.34 1.3-.57 1.88c0 .06-.17 0-.38 0a3 3 0 0 1-2.25-2.12.06.06 0 0 1 .11 0 4.58 4.58 0 0 0 2.23 1.75c.1-.15.49-2.24.58-2.21a5.4 5.4 0 0 1 1.2.83c.77-2.68 1.1-5.47 1.9-8.13 0-.09.18-.06.17 0a45.3 45.3 0 0 1-1.68 8.84c-.11.3-1.12-.62-1.31-.84" style="fill:#263238"/><path d="M178.94 70.46c3.05 1.13 7.7-7.76 8.26-8.85-.32.7-2 4.47-1.75 4.74a3.3 3.3 0 0 0 1 .2 10 10 0 0 1 .67-1.32c.11-.2-.11.49-.33 1.36l.62.07a11.7 11.7 0 0 1 1.47-2.77c.23-.33-.33 1.33-.56 2.88a39.5 39.5 0 0 1 8.43 1.83c.76.28 1.41.56 2 .82a21 21 0 0 1 .8-2.08 12 12 0 0 1-.38 2.28c.3.14.58.28.82.41.73-1.56 1-4.4 1.11-3.9a12.1 12.1 0 0 1-.07 4.53c1 .65 1.21 1 1.36.72a14.37 14.37 0 0 0-.68-9.85c-2.31-5.07-9.44-9-15.9-5.3 0 0-4.4.84-6.45 4.28s-2.18 9.3-.42 9.95" style="fill:#263238"/><path d="M180.07 70.77s-1-4.86-3.13-4.64-2.42 6.49-.74 8.07a2.2 2.2 0 0 0 3.18.06Z" style="fill:#ad6359"/><path d="M176.89 67.93s-.06 0 0 0a5.54 5.54 0 0 1 1.29 4.33 1.21 1.21 0 0 0-1.55-1s0 .08 0 .09a1.34 1.34 0 0 1 1.19 1 6.5 6.5 0 0 1 .18 1.45c0 .15.27.18.28 0 .78-1.8.45-4.88-1.39-5.87m15.81 11.46a3.75 3.75 0 0 1-1.71.7 1.7 1.7 0 0 1-1-.21c-.65-.38-.48-1-.21-1.53a3.7 3.7 0 0 1 .55-.74 4.65 4.65 0 0 0 2.37 1.78" style="fill:#263238"/><path d="M191 80.09a1.7 1.7 0 0 1-1-.21c-.65-.38-.48-1-.21-1.53a1.7 1.7 0 0 1 1.21 1.74" style="fill:#ff99ba"/></svg>